<svg id="visual" viewBox="0 0 900 600" width="900" height="600" xmlns="http://www.w3.org/2000/svg" xmlns:xlink="http://www.w3.org/1999/xlink" version="1.1"><rect width="900" height="600" fill="#092c24"></rect><g><g transform="translate(480 149)"><path d="M0 -14.1L9 -10.8L13.8 -2.4L12.2 7L4.8 13.2L-4.8 13.2L-12.2 7L-13.8 -2.4L-9 -10.8Z" fill="none" stroke="#353b12" stroke-width="2"></path></g><g transform="translate(670 316)"><path d="M0 -8L5.1 -6.1L7.9 -1.4L6.9 4L2.7 7.5L-2.7 7.5L-6.9 4L-7.9 -1.4L-5.1 -6.1Z" fill="none" stroke="#353b12" stroke-width="2"></path></g><g transform="translate(272 54)"><path d="M0 -6L3.9 -4.6L5.9 -1L5.2 3L2.1 5.6L-2.1 5.6L-5.2 3L-5.9 -1L-3.9 -4.6Z" fill="none" stroke="#353b12" stroke-width="2"></path></g><g transform="translate(305 409)"><path d="M0 -7L4.5 -5.4L6.9 -1.2L6.1 3.5L2.4 6.6L-2.4 6.6L-6.1 3.5L-6.9 -1.2L-4.5 -5.4Z" stroke="#353b12" fill="none" stroke-width="2"></path></g><g transform="translate(174 316)"><path d="M0 -5L3.2 -3.8L4.9 -0.9L4.3 2.5L1.7 4.7L-1.7 4.7L-4.3 2.5L-4.9 -0.9L-3.2 -3.8Z" stroke="#353b12" fill="none" stroke-width="2"></path></g><g transform="translate(146 154)"><path d="M0 -5L3.2 -3.8L4.9 -0.9L4.3 2.5L1.7 4.7L-1.7 4.7L-4.3 2.5L-4.9 -0.9L-3.2 -3.8Z" stroke="#353b12" fill="none" stroke-width="2"></path></g><g transform="translate(551 583)"><path d="M0 -13L8.4 -10L12.8 -2.3L11.3 6.5L4.4 12.2L-4.4 12.2L-11.3 6.5L-12.8 -2.3L-8.4 -10Z" stroke="#353b12" fill="none" stroke-width="2"></path></g><g transform="translate(790 585)"><path d="M0 -12L7.7 -9.2L11.8 -2.1L10.4 6L4.1 11.3L-4.1 11.3L-10.4 6L-11.8 -2.1L-7.7 -9.2Z" stroke="#353b12" fill="none" stroke-width="2"></path></g><g transform="translate(445 82)"><path d="M0 -11L7.1 -8.4L10.8 -1.9L9.5 5.5L3.8 10.3L-3.8 10.3L-9.5 5.5L-10.8 -1.9L-7.1 -8.4Z" stroke="#353b12" fill="none" stroke-width="2"></path></g><g transform="translate(727 481)"><path d="M0 -6L3.9 -4.6L5.9 -1L5.2 3L2.1 5.6L-2.1 5.6L-5.2 3L-5.9 -1L-3.9 -4.6Z" stroke="#353b12" fill="none" stroke-width="2"></path></g><g transform="translate(770 223)"><path d="M0 -4L2.6 -3.1L3.9 -0.7L3.5 2L1.4 3.8L-1.4 3.8L-3.5 2L-3.9 -0.7L-2.6 -3.1Z" stroke="#353b12" fill="none" stroke-width="2"></path></g><g transform="translate(414 473)"><path d="M0 -5L3.2 -3.8L4.9 -0.9L4.3 2.5L1.7 4.7L-1.7 4.7L-4.3 2.5L-4.9 -0.9L-3.2 -3.8Z" stroke="#353b12" fill="none" stroke-width="2"></path></g><g transform="translate(472 453)"><path d="M0 -10L6.4 -7.7L9.8 -1.7L8.7 5L3.4 9.4L-3.4 9.4L-8.7 5L-9.8 -1.7L-6.4 -7.7Z" stroke="#353b12" fill="none" stroke-width="2"></path></g><g transform="translate(283 252)"><path d="M0 -4L2.6 -3.1L3.9 -0.7L3.5 2L1.4 3.8L-1.4 3.8L-3.5 2L-3.9 -0.7L-2.6 -3.1Z" stroke="#353b12" fill="none" stroke-width="2"></path></g><g transform="translate(347 167)"><path d="M0 -7L4.5 -5.4L6.9 -1.2L6.1 3.5L2.4 6.6L-2.4 6.6L-6.1 3.5L-6.9 -1.2L-4.5 -5.4Z" stroke="#353b12" fill="none" stroke-width="2"></path></g><g transform="translate(816 7)"><path d="M0 -4L2.6 -3.1L3.9 -0.7L3.5 2L1.4 3.8L-1.4 3.8L-3.5 2L-3.9 -0.7L-2.6 -3.1Z" stroke="#353b12" fill="none" stroke-width="2"></path></g><g transform="translate(644 404)"><path d="M0 -8L5.1 -6.1L7.9 -1.4L6.9 4L2.7 7.5L-2.7 7.5L-6.9 4L-7.9 -1.4L-5.1 -6.1Z" stroke="#353b12" fill="none" stroke-width="2"></path></g><g transform="translate(620 33)"><path d="M0 -5L3.2 -3.8L4.9 -0.9L4.3 2.5L1.7 4.7L-1.7 4.7L-4.3 2.5L-4.9 -0.9L-3.2 -3.8Z" stroke="#353b12" fill="none" stroke-width="2"></path></g><g transform="translate(684 230)"><path d="M0 -12L7.7 -9.2L11.8 -2.1L10.4 6L4.1 11.3L-4.1 11.3L-10.4 6L-11.8 -2.1L-7.7 -9.2Z" stroke="#353b12" fill="none" stroke-width="2"></path></g><g transform="translate(700 41)"><path d="M0 -5L3.2 -3.8L4.9 -0.9L4.3 2.5L1.7 4.7L-1.7 4.7L-4.3 2.5L-4.9 -0.9L-3.2 -3.8Z" stroke="#353b12" fill="none" stroke-width="2"></path></g><g transform="translate(694 275)"><path d="M0 -5L3.2 -3.8L4.9 -0.9L4.3 2.5L1.7 4.7L-1.7 4.7L-4.3 2.5L-4.9 -0.9L-3.2 -3.8Z" stroke="#353b12" fill="none" stroke-width="2"></path></g><g transform="translate(731 447)"><path d="M0 -8L5.1 -6.1L7.9 -1.4L6.9 4L2.7 7.5L-2.7 7.5L-6.9 4L-7.9 -1.4L-5.1 -6.1Z" stroke="#353b12" fill="none" stroke-width="2"></path></g><g transform="translate(688 526)"><path d="M0 -13L8.4 -10L12.8 -2.3L11.3 6.5L4.4 12.2L-4.4 12.2L-11.3 6.5L-12.8 -2.3L-8.4 -10Z" stroke="#353b12" fill="none" stroke-width="2"></path></g><g transform="translate(541 493)"><path d="M0 -7L4.5 -5.4L6.9 -1.2L6.1 3.5L2.4 6.6L-2.4 6.6L-6.1 3.5L-6.9 -1.2L-4.5 -5.4Z" stroke="#353b12" fill="none" stroke-width="2"></path></g><g transform="translate(639 339)"><path d="M0 -12L7.7 -9.2L11.8 -2.1L10.4 6L4.1 11.3L-4.1 11.3L-10.4 6L-11.8 -2.1L-7.7 -9.2Z" stroke="#353b12" fill="none" stroke-width="2"></path></g><g transform="translate(33 106)"><path d="M0 -4L2.6 -3.1L3.9 -0.7L3.5 2L1.4 3.8L-1.4 3.8L-3.5 2L-3.9 -0.7L-2.6 -3.1Z" stroke="#353b12" fill="none" stroke-width="2"></path></g><g transform="translate(735 259)"><path d="M0 -8L5.1 -6.1L7.9 -1.4L6.9 4L2.7 7.5L-2.7 7.5L-6.9 4L-7.9 -1.4L-5.1 -6.1Z" stroke="#353b12" fill="none" stroke-width="2"></path></g><g transform="translate(619 515)"><path d="M0 -9L5.8 -6.9L8.9 -1.6L7.8 4.5L3.1 8.5L-3.1 8.5L-7.8 4.5L-8.9 -1.6L-5.8 -6.9Z" stroke="#353b12" fill="none" stroke-width="2"></path></g><g transform="translate(834 394)"><path d="M0 -3L1.9 -2.3L3 -0.5L2.6 1.5L1 2.8L-1 2.8L-2.6 1.5L-3 -0.5L-1.9 -2.3Z" stroke="#353b12" fill="none" stroke-width="2"></path></g><g transform="translate(92 503)"><path d="M0 -10L6.4 -7.7L9.8 -1.7L8.7 5L3.4 9.4L-3.4 9.4L-8.7 5L-9.8 -1.7L-6.4 -7.7Z" stroke="#353b12" fill="none" stroke-width="2"></path></g><g transform="translate(848 191)"><path d="M0 -12L7.7 -9.2L11.8 -2.1L10.4 6L4.1 11.3L-4.1 11.3L-10.4 6L-11.8 -2.1L-7.7 -9.2Z" stroke="#353b12" fill="none" stroke-width="2"></path></g><g transform="translate(254 150)"><path d="M0 -5L3.2 -3.8L4.9 -0.9L4.3 2.5L1.7 4.7L-1.7 4.7L-4.3 2.5L-4.9 -0.9L-3.2 -3.8Z" stroke="#353b12" fill="none" stroke-width="2"></path></g><g transform="translate(55 242)"><path d="M0 -12L7.7 -9.2L11.8 -2.1L10.4 6L4.1 11.3L-4.1 11.3L-10.4 6L-11.8 -2.1L-7.7 -9.2Z" stroke="#353b12" fill="none" stroke-width="2"></path></g><g transform="translate(511 223)"><path d="M0 -11L7.1 -8.4L10.8 -1.9L9.5 5.5L3.8 10.3L-3.8 10.3L-9.5 5.5L-10.8 -1.9L-7.1 -8.4Z" stroke="#353b12" fill="none" stroke-width="2"></path></g><g transform="translate(218 476)"><path d="M0 -13L8.4 -10L12.8 -2.3L11.3 6.5L4.4 12.2L-4.4 12.2L-11.3 6.5L-12.8 -2.3L-8.4 -10Z" stroke="#353b12" fill="none" stroke-width="2"></path></g><g transform="translate(743 327)"><path d="M0 -9L5.8 -6.9L8.9 -1.6L7.8 4.5L3.1 8.5L-3.1 8.5L-7.8 4.5L-8.9 -1.6L-5.8 -6.9Z" stroke="#353b12" fill="none" stroke-width="2"></path></g><g transform="translate(425 355)"><path d="M0 -13L8.4 -10L12.8 -2.3L11.3 6.5L4.4 12.2L-4.4 12.2L-11.3 6.5L-12.8 -2.3L-8.4 -10Z" stroke="#353b12" fill="none" stroke-width="2"></path></g><g transform="translate(587 580)"><path d="M0 -5L3.2 -3.8L4.9 -0.9L4.3 2.5L1.7 4.7L-1.7 4.7L-4.3 2.5L-4.9 -0.9L-3.2 -3.8Z" stroke="#353b12" fill="none" stroke-width="2"></path></g><g transform="translate(447 408)"><path d="M0 -10L6.4 -7.7L9.8 -1.7L8.7 5L3.4 9.4L-3.4 9.4L-8.7 5L-9.8 -1.7L-6.4 -7.7Z" stroke="#353b12" fill="none" stroke-width="2"></path></g><g transform="translate(899 100)"><path d="M0 -11L7.1 -8.4L10.8 -1.9L9.5 5.5L3.8 10.3L-3.8 10.3L-9.5 5.5L-10.8 -1.9L-7.1 -8.4Z" stroke="#353b12" fill="none" stroke-width="2"></path></g><g transform="translate(449 202)"><path d="M0 -4L2.6 -3.1L3.9 -0.7L3.5 2L1.4 3.8L-1.4 3.8L-3.5 2L-3.9 -0.7L-2.6 -3.1Z" stroke="#353b12" fill="none" stroke-width="2"></path></g><g transform="translate(827 546)"><path d="M0 -6L3.9 -4.6L5.9 -1L5.2 3L2.1 5.6L-2.1 5.6L-5.2 3L-5.9 -1L-3.9 -4.6Z" stroke="#353b12" fill="none" stroke-width="2"></path></g><g transform="translate(460 174)"><path d="M0 -13L8.4 -10L12.8 -2.3L11.3 6.5L4.4 12.2L-4.4 12.2L-11.3 6.5L-12.8 -2.3L-8.4 -10Z" stroke="#353b12" fill="none" stroke-width="2"></path></g><g transform="translate(290 140)"><path d="M0 -6L3.9 -4.6L5.9 -1L5.2 3L2.1 5.6L-2.1 5.6L-5.2 3L-5.9 -1L-3.9 -4.6Z" stroke="#353b12" fill="none" stroke-width="2"></path></g><g transform="translate(687 452)"><path d="M0 -4L2.6 -3.1L3.9 -0.7L3.5 2L1.4 3.8L-1.4 3.8L-3.5 2L-3.9 -0.7L-2.6 -3.1Z" stroke="#353b12" fill="none" stroke-width="2"></path></g><g transform="translate(845 221)"><path d="M0 -9L5.8 -6.9L8.9 -1.6L7.8 4.5L3.1 8.5L-3.1 8.5L-7.8 4.5L-8.9 -1.6L-5.8 -6.9Z" stroke="#353b12" fill="none" stroke-width="2"></path></g><g transform="translate(67 373)"><path d="M0 -8L5.1 -6.1L7.9 -1.4L6.9 4L2.7 7.5L-2.7 7.5L-6.9 4L-7.9 -1.4L-5.1 -6.1Z" stroke="#353b12" fill="none" stroke-width="2"></path></g><g transform="translate(12 583)"><path d="M0 -5L3.2 -3.8L4.9 -0.9L4.3 2.5L1.7 4.7L-1.7 4.7L-4.3 2.5L-4.9 -0.9L-3.2 -3.8Z" stroke="#353b12" fill="none" stroke-width="2"></path></g><g transform="translate(177 564)"><path d="M0 -5L3.2 -3.8L4.9 -0.9L4.3 2.5L1.7 4.7L-1.7 4.7L-4.3 2.5L-4.9 -0.9L-3.2 -3.8Z" stroke="#353b12" fill="none" stroke-width="2"></path></g><g transform="translate(220 306)"><path d="M0 -8L5.1 -6.1L7.9 -1.4L6.9 4L2.7 7.5L-2.7 7.5L-6.9 4L-7.9 -1.4L-5.1 -6.1Z" stroke="#353b12" fill="none" stroke-width="2"></path></g><g transform="translate(874 9)"><path d="M0 -7L4.5 -5.4L6.9 -1.2L6.1 3.5L2.4 6.6L-2.4 6.6L-6.1 3.5L-6.9 -1.2L-4.5 -5.4Z" stroke="#353b12" fill="none" stroke-width="2"></path></g><g transform="translate(492 476)"><path d="M0 -3L1.9 -2.3L3 -0.5L2.6 1.5L1 2.8L-1 2.8L-2.6 1.5L-3 -0.5L-1.9 -2.3Z" stroke="#353b12" fill="none" stroke-width="2"></path></g><g transform="translate(649 140)"><path d="M0 -9L5.8 -6.9L8.9 -1.6L7.8 4.5L3.1 8.5L-3.1 8.5L-7.8 4.5L-8.9 -1.6L-5.8 -6.9Z" stroke="#353b12" fill="none" stroke-width="2"></path></g><g transform="translate(207 273)"><path d="M0 -13L8.4 -10L12.8 -2.3L11.3 6.5L4.4 12.2L-4.4 12.2L-11.3 6.5L-12.8 -2.3L-8.4 -10Z" stroke="#353b12" fill="none" stroke-width="2"></path></g><g transform="translate(2 430)"><path d="M0 -5L3.2 -3.8L4.9 -0.9L4.3 2.5L1.7 4.7L-1.7 4.7L-4.3 2.5L-4.9 -0.9L-3.2 -3.8Z" stroke="#353b12" fill="none" stroke-width="2"></path></g><g transform="translate(343 483)"><path d="M0 -4L2.6 -3.1L3.9 -0.7L3.5 2L1.4 3.8L-1.4 3.8L-3.5 2L-3.9 -0.7L-2.6 -3.1Z" stroke="#353b12" fill="none" stroke-width="2"></path></g><g transform="translate(400 402)"><path d="M0 -3L1.9 -2.3L3 -0.5L2.6 1.5L1 2.8L-1 2.8L-2.6 1.5L-3 -0.5L-1.9 -2.3Z" stroke="#353b12" fill="none" stroke-width="2"></path></g><g transform="translate(12 195)"><path d="M0 -11L7.1 -8.4L10.8 -1.9L9.5 5.5L3.8 10.3L-3.8 10.3L-9.5 5.5L-10.8 -1.9L-7.1 -8.4Z" stroke="#353b12" fill="none" stroke-width="2"></path></g><g transform="translate(265 368)"><path d="M0 -3L1.9 -2.3L3 -0.5L2.6 1.5L1 2.8L-1 2.8L-2.6 1.5L-3 -0.5L-1.9 -2.3Z" stroke="#353b12" fill="none" stroke-width="2"></path></g><g transform="translate(800 451)"><path d="M0 -6L3.9 -4.6L5.9 -1L5.2 3L2.1 5.6L-2.1 5.6L-5.2 3L-5.9 -1L-3.9 -4.6Z" stroke="#353b12" fill="none" stroke-width="2"></path></g><g transform="translate(806 179)"><path d="M0 -12L7.7 -9.2L11.8 -2.1L10.4 6L4.1 11.3L-4.1 11.3L-10.4 6L-11.8 -2.1L-7.7 -9.2Z" stroke="#353b12" fill="none" stroke-width="2"></path></g><g transform="translate(550 59)"><path d="M0 -4L2.6 -3.1L3.9 -0.7L3.5 2L1.4 3.8L-1.4 3.8L-3.5 2L-3.9 -0.7L-2.6 -3.1Z" stroke="#353b12" fill="none" stroke-width="2"></path></g><g transform="translate(32 532)"><path d="M0 -13L8.4 -10L12.8 -2.3L11.3 6.5L4.4 12.2L-4.4 12.2L-11.3 6.5L-12.8 -2.3L-8.4 -10Z" stroke="#353b12" fill="none" stroke-width="2"></path></g><g transform="translate(50 20)"><path d="M0 -12L7.7 -9.2L11.8 -2.1L10.4 6L4.1 11.3L-4.1 11.3L-10.4 6L-11.8 -2.1L-7.7 -9.2Z" stroke="#353b12" fill="none" stroke-width="2"></path></g><g transform="translate(348 352)"><path d="M0 -8L5.1 -6.1L7.9 -1.4L6.9 4L2.7 7.5L-2.7 7.5L-6.9 4L-7.9 -1.4L-5.1 -6.1Z" stroke="#353b12" fill="none" stroke-width="2"></path></g><g transform="translate(196 423)"><path d="M0 -5L3.2 -3.8L4.9 -0.9L4.3 2.5L1.7 4.7L-1.7 4.7L-4.3 2.5L-4.9 -0.9L-3.2 -3.8Z" stroke="#353b12" fill="none" stroke-width="2"></path></g><g transform="translate(841 57)"><path d="M0 -12L7.7 -9.2L11.8 -2.1L10.4 6L4.1 11.3L-4.1 11.3L-10.4 6L-11.8 -2.1L-7.7 -9.2Z" stroke="#353b12" fill="none" stroke-width="2"></path></g><g transform="translate(216 87)"><path d="M0 -7L4.5 -5.4L6.9 -1.2L6.1 3.5L2.4 6.6L-2.4 6.6L-6.1 3.5L-6.9 -1.2L-4.5 -5.4Z" stroke="#353b12" fill="none" stroke-width="2"></path></g><g transform="translate(421 563)"><path d="M0 -3L1.9 -2.3L3 -0.5L2.6 1.5L1 2.8L-1 2.8L-2.6 1.5L-3 -0.5L-1.9 -2.3Z" stroke="#353b12" fill="none" stroke-width="2"></path></g><g transform="translate(173 249)"><path d="M0 -4L2.6 -3.1L3.9 -0.7L3.5 2L1.4 3.8L-1.4 3.8L-3.5 2L-3.9 -0.7L-2.6 -3.1Z" stroke="#353b12" fill="none" stroke-width="2"></path></g><g transform="translate(78 567)"><path d="M0 -10L6.4 -7.7L9.8 -1.7L8.7 5L3.4 9.4L-3.4 9.4L-8.7 5L-9.8 -1.7L-6.4 -7.7Z" stroke="#353b12" fill="none" stroke-width="2"></path></g><g transform="translate(346 544)"><path d="M0 -10L6.4 -7.7L9.8 -1.7L8.7 5L3.4 9.4L-3.4 9.4L-8.7 5L-9.8 -1.7L-6.4 -7.7Z" stroke="#353b12" fill="none" stroke-width="2"></path></g><g transform="translate(295 217)"><path d="M0 -5L3.2 -3.8L4.9 -0.9L4.3 2.5L1.7 4.7L-1.7 4.7L-4.3 2.5L-4.9 -0.9L-3.2 -3.8Z" stroke="#353b12" fill="none" stroke-width="2"></path></g><g transform="translate(760 562)"><path d="M0 -6L3.9 -4.6L5.9 -1L5.2 3L2.1 5.6L-2.1 5.6L-5.2 3L-5.9 -1L-3.9 -4.6Z" stroke="#353b12" fill="none" stroke-width="2"></path></g><g transform="translate(164 457)"><path d="M0 -7L4.5 -5.4L6.9 -1.2L6.1 3.5L2.4 6.6L-2.4 6.6L-6.1 3.5L-6.9 -1.2L-4.5 -5.4Z" stroke="#353b12" fill="none" stroke-width="2"></path></g><g transform="translate(745 7)"><path d="M0 -9L5.8 -6.9L8.9 -1.6L7.8 4.5L3.1 8.5L-3.1 8.5L-7.8 4.5L-8.9 -1.6L-5.8 -6.9Z" stroke="#353b12" fill="none" stroke-width="2"></path></g><g transform="translate(169 350)"><path d="M0 -4L2.6 -3.1L3.9 -0.7L3.5 2L1.4 3.8L-1.4 3.8L-3.5 2L-3.9 -0.7L-2.6 -3.1Z" stroke="#353b12" fill="none" stroke-width="2"></path></g><g transform="translate(640 309)"><path d="M0 -10L6.4 -7.7L9.8 -1.7L8.7 5L3.4 9.4L-3.4 9.4L-8.7 5L-9.8 -1.7L-6.4 -7.7Z" stroke="#353b12" fill="none" stroke-width="2"></path></g><g transform="translate(250 81)"><path d="M0 -6L3.9 -4.6L5.9 -1L5.2 3L2.1 5.6L-2.1 5.6L-5.2 3L-5.9 -1L-3.9 -4.6Z" stroke="#353b12" fill="none" stroke-width="2"></path></g><g transform="translate(494 565)"><path d="M0 -11L7.1 -8.4L10.8 -1.9L9.5 5.5L3.8 10.3L-3.8 10.3L-9.5 5.5L-10.8 -1.9L-7.1 -8.4Z" stroke="#353b12" fill="none" stroke-width="2"></path></g><g transform="translate(458 581)"><path d="M0 -3L1.9 -2.3L3 -0.5L2.6 1.5L1 2.8L-1 2.8L-2.6 1.5L-3 -0.5L-1.9 -2.3Z" stroke="#353b12" fill="none" stroke-width="2"></path></g><g transform="translate(645 91)"><path d="M0 -5L3.2 -3.8L4.9 -0.9L4.3 2.5L1.7 4.7L-1.7 4.7L-4.3 2.5L-4.9 -0.9L-3.2 -3.8Z" stroke="#353b12" fill="none" stroke-width="2"></path></g><g transform="translate(564 240)"><path d="M0 -7L4.5 -5.4L6.9 -1.2L6.1 3.5L2.4 6.6L-2.4 6.6L-6.1 3.5L-6.9 -1.2L-4.5 -5.4Z" stroke="#353b12" fill="none" stroke-width="2"></path></g><g transform="translate(192 389)"><path d="M0 -12L7.7 -9.2L11.8 -2.1L10.4 6L4.1 11.3L-4.1 11.3L-10.4 6L-11.8 -2.1L-7.7 -9.2Z" stroke="#353b12" fill="none" stroke-width="2"></path></g><g transform="translate(664 365)"><path d="M0 -5L3.2 -3.8L4.9 -0.9L4.3 2.5L1.7 4.7L-1.7 4.7L-4.3 2.5L-4.9 -0.9L-3.2 -3.8Z" stroke="#353b12" fill="none" stroke-width="2"></path></g><g transform="translate(235 581)"><path d="M0 -4L2.6 -3.1L3.9 -0.7L3.5 2L1.4 3.8L-1.4 3.8L-3.5 2L-3.9 -0.7L-2.6 -3.1Z" stroke="#353b12" fill="none" stroke-width="2"></path></g><g transform="translate(896 541)"><path d="M0 -9L5.8 -6.9L8.9 -1.6L7.8 4.5L3.1 8.5L-3.1 8.5L-7.8 4.5L-8.9 -1.6L-5.8 -6.9Z" stroke="#353b12" fill="none" stroke-width="2"></path></g><g transform="translate(240 420)"><path d="M0 -7L4.5 -5.4L6.9 -1.2L6.1 3.5L2.4 6.6L-2.4 6.6L-6.1 3.5L-6.9 -1.2L-4.5 -5.4Z" stroke="#353b12" fill="none" stroke-width="2"></path></g><g transform="translate(276 561)"><path d="M0 -12L7.7 -9.2L11.8 -2.1L10.4 6L4.1 11.3L-4.1 11.3L-10.4 6L-11.8 -2.1L-7.7 -9.2Z" stroke="#353b12" fill="none" stroke-width="2"></path></g><g transform="translate(469 507)"><path d="M0 -11L7.1 -8.4L10.8 -1.9L9.5 5.5L3.8 10.3L-3.8 10.3L-9.5 5.5L-10.8 -1.9L-7.1 -8.4Z" stroke="#353b12" fill="none" stroke-width="2"></path></g><g transform="translate(631 203)"><path d="M0 -7L4.5 -5.4L6.9 -1.2L6.1 3.5L2.4 6.6L-2.4 6.6L-6.1 3.5L-6.9 -1.2L-4.5 -5.4Z" stroke="#353b12" fill="none" stroke-width="2"></path></g><g transform="translate(380 222)"><path d="M0 -6L3.9 -4.6L5.9 -1L5.2 3L2.1 5.6L-2.1 5.6L-5.2 3L-5.9 -1L-3.9 -4.6Z" stroke="#353b12" fill="none" stroke-width="2"></path></g><g transform="translate(383 44)"><path d="M0 -7L4.5 -5.4L6.9 -1.2L6.1 3.5L2.4 6.6L-2.4 6.6L-6.1 3.5L-6.9 -1.2L-4.5 -5.4Z" stroke="#353b12" fill="none" stroke-width="2"></path></g><g transform="translate(351 211)"><path d="M0 -3L1.9 -2.3L3 -0.5L2.6 1.5L1 2.8L-1 2.8L-2.6 1.5L-3 -0.5L-1.9 -2.3Z" stroke="#353b12" fill="none" stroke-width="2"></path></g><g transform="translate(878 371)"><path d="M0 -9L5.8 -6.9L8.9 -1.6L7.8 4.5L3.1 8.5L-3.1 8.5L-7.8 4.5L-8.9 -1.6L-5.8 -6.9Z" stroke="#353b12" fill="none" stroke-width="2"></path></g><g transform="translate(571 178)"><path d="M0 -9L5.8 -6.9L8.9 -1.6L7.8 4.5L3.1 8.5L-3.1 8.5L-7.8 4.5L-8.9 -1.6L-5.8 -6.9Z" stroke="#353b12" fill="none" stroke-width="2"></path></g><g transform="translate(536 112)"><path d="M0 -6L3.9 -4.6L5.9 -1L5.2 3L2.1 5.6L-2.1 5.6L-5.2 3L-5.9 -1L-3.9 -4.6Z" stroke="#353b12" fill="none" stroke-width="2"></path></g><g transform="translate(892 144)"><path d="M0 -9L5.8 -6.9L8.9 -1.6L7.8 4.5L3.1 8.5L-3.1 8.5L-7.8 4.5L-8.9 -1.6L-5.8 -6.9Z" stroke="#353b12" fill="none" stroke-width="2"></path></g><g transform="translate(610 268)"><path d="M0 -12L7.7 -9.2L11.8 -2.1L10.4 6L4.1 11.3L-4.1 11.3L-10.4 6L-11.8 -2.1L-7.7 -9.2Z" stroke="#353b12" fill="none" stroke-width="2"></path></g><g transform="translate(751 106)"><path d="M0 -4L2.6 -3.1L3.9 -0.7L3.5 2L1.4 3.8L-1.4 3.8L-3.5 2L-3.9 -0.7L-2.6 -3.1Z" stroke="#353b12" fill="none" stroke-width="2"></path></g><g transform="translate(624 365)"><path d="M0 -10L6.4 -7.7L9.8 -1.7L8.7 5L3.4 9.4L-3.4 9.4L-8.7 5L-9.8 -1.7L-6.4 -7.7Z" stroke="#353b12" fill="none" stroke-width="2"></path></g><g transform="translate(101 307)"><path d="M0 -8L5.1 -6.1L7.9 -1.4L6.9 4L2.7 7.5L-2.7 7.5L-6.9 4L-7.9 -1.4L-5.1 -6.1Z" stroke="#353b12" fill="none" stroke-width="2"></path></g><g transform="translate(129 458)"><path d="M0 -4L2.6 -3.1L3.9 -0.7L3.5 2L1.4 3.8L-1.4 3.8L-3.5 2L-3.9 -0.7L-2.6 -3.1Z" stroke="#353b12" fill="none" stroke-width="2"></path></g><g transform="translate(40 569)"><path d="M0 -9L5.8 -6.9L8.9 -1.6L7.8 4.5L3.1 8.5L-3.1 8.5L-7.8 4.5L-8.9 -1.6L-5.8 -6.9Z" stroke="#353b12" fill="none" stroke-width="2"></path></g><g transform="translate(202 530)"><path d="M0 -4L2.6 -3.1L3.9 -0.7L3.5 2L1.4 3.8L-1.4 3.8L-3.5 2L-3.9 -0.7L-2.6 -3.1Z" stroke="#353b12" fill="none" stroke-width="2"></path></g><g transform="translate(149 410)"><path d="M0 -9L5.8 -6.9L8.9 -1.6L7.8 4.5L3.1 8.5L-3.1 8.5L-7.8 4.5L-8.9 -1.6L-5.8 -6.9Z" stroke="#353b12" fill="none" stroke-width="2"></path></g><g transform="translate(268 7)"><path d="M0 -9L5.8 -6.9L8.9 -1.6L7.8 4.5L3.1 8.5L-3.1 8.5L-7.8 4.5L-8.9 -1.6L-5.8 -6.9Z" stroke="#353b12" fill="none" stroke-width="2"></path></g><g transform="translate(569 540)"><path d="M0 -3L1.9 -2.3L3 -0.5L2.6 1.5L1 2.8L-1 2.8L-2.6 1.5L-3 -0.5L-1.9 -2.3Z" stroke="#353b12" fill="none" stroke-width="2"></path></g><g transform="translate(787 486)"><path d="M0 -9L5.8 -6.9L8.9 -1.6L7.8 4.5L3.1 8.5L-3.1 8.5L-7.8 4.5L-8.9 -1.6L-5.8 -6.9Z" stroke="#353b12" fill="none" stroke-width="2"></path></g><g transform="translate(826 594)"><path d="M0 -6L3.9 -4.6L5.9 -1L5.2 3L2.1 5.6L-2.1 5.6L-5.2 3L-5.9 -1L-3.9 -4.6Z" stroke="#353b12" fill="none" stroke-width="2"></path></g><g transform="translate(101 242)"><path d="M0 -5L3.2 -3.8L4.9 -0.9L4.3 2.5L1.7 4.7L-1.7 4.7L-4.3 2.5L-4.9 -0.9L-3.2 -3.8Z" stroke="#353b12" fill="none" stroke-width="2"></path></g><g transform="translate(53 498)"><path d="M0 -13L8.4 -10L12.8 -2.3L11.3 6.5L4.4 12.2L-4.4 12.2L-11.3 6.5L-12.8 -2.3L-8.4 -10Z" stroke="#353b12" fill="none" stroke-width="2"></path></g><g transform="translate(842 303)"><path d="M0 -9L5.8 -6.9L8.9 -1.6L7.8 4.5L3.1 8.5L-3.1 8.5L-7.8 4.5L-8.9 -1.6L-5.8 -6.9Z" stroke="#353b12" fill="none" stroke-width="2"></path></g><g transform="translate(546 441)"><path d="M0 -10L6.4 -7.7L9.8 -1.7L8.7 5L3.4 9.4L-3.4 9.4L-8.7 5L-9.8 -1.7L-6.4 -7.7Z" stroke="#353b12" fill="none" stroke-width="2"></path></g><g transform="translate(176 197)"><path d="M0 -10L6.4 -7.7L9.8 -1.7L8.7 5L3.4 9.4L-3.4 9.4L-8.7 5L-9.8 -1.7L-6.4 -7.7Z" stroke="#353b12" fill="none" stroke-width="2"></path></g><g transform="translate(287 597)"><path d="M0 -12L7.7 -9.2L11.8 -2.1L10.4 6L4.1 11.3L-4.1 11.3L-10.4 6L-11.8 -2.1L-7.7 -9.2Z" stroke="#353b12" fill="none" stroke-width="2"></path></g><g transform="translate(721 186)"><path d="M0 -10L6.4 -7.7L9.8 -1.7L8.7 5L3.4 9.4L-3.4 9.4L-8.7 5L-9.8 -1.7L-6.4 -7.7Z" stroke="#353b12" fill="none" stroke-width="2"></path></g><g transform="translate(339 305)"><path d="M0 -4L2.6 -3.1L3.9 -0.7L3.5 2L1.4 3.8L-1.4 3.8L-3.5 2L-3.9 -0.7L-2.6 -3.1Z" stroke="#353b12" fill="none" stroke-width="2"></path></g><g transform="translate(106 24)"><path d="M0 -5L3.2 -3.8L4.9 -0.9L4.3 2.5L1.7 4.7L-1.7 4.7L-4.3 2.5L-4.9 -0.9L-3.2 -3.8Z" stroke="#353b12" fill="none" stroke-width="2"></path></g><g transform="translate(111 70)"><path d="M0 -4L2.6 -3.1L3.9 -0.7L3.5 2L1.4 3.8L-1.4 3.8L-3.5 2L-3.9 -0.7L-2.6 -3.1Z" stroke="#353b12" fill="none" stroke-width="2"></path></g><g transform="translate(14 301)"><path d="M0 -5L3.2 -3.8L4.9 -0.9L4.3 2.5L1.7 4.7L-1.7 4.7L-4.3 2.5L-4.9 -0.9L-3.2 -3.8Z" stroke="#353b12" fill="none" stroke-width="2"></path></g><g transform="translate(494 381)"><path d="M0 -9L5.8 -6.9L8.9 -1.6L7.8 4.5L3.1 8.5L-3.1 8.5L-7.8 4.5L-8.9 -1.6L-5.8 -6.9Z" stroke="#353b12" fill="none" stroke-width="2"></path></g><g transform="translate(35 221)"><path d="M0 -13L8.4 -10L12.8 -2.3L11.3 6.5L4.4 12.2L-4.4 12.2L-11.3 6.5L-12.8 -2.3L-8.4 -10Z" stroke="#353b12" fill="none" stroke-width="2"></path></g><g transform="translate(707 561)"><path d="M0 -4L2.6 -3.1L3.9 -0.7L3.5 2L1.4 3.8L-1.4 3.8L-3.5 2L-3.9 -0.7L-2.6 -3.1Z" stroke="#353b12" fill="none" stroke-width="2"></path></g><g transform="translate(773 16)"><path d="M0 -6L3.9 -4.6L5.9 -1L5.2 3L2.1 5.6L-2.1 5.6L-5.2 3L-5.9 -1L-3.9 -4.6Z" stroke="#353b12" fill="none" stroke-width="2"></path></g><g transform="translate(437 145)"><path d="M0 -5L3.2 -3.8L4.9 -0.9L4.3 2.5L1.7 4.7L-1.7 4.7L-4.3 2.5L-4.9 -0.9L-3.2 -3.8Z" stroke="#353b12" fill="none" stroke-width="2"></path></g><g transform="translate(577 121)"><path d="M0 -4L2.6 -3.1L3.9 -0.7L3.5 2L1.4 3.8L-1.4 3.8L-3.5 2L-3.9 -0.7L-2.6 -3.1Z" stroke="#353b12" fill="none" stroke-width="2"></path></g><g transform="translate(580 217)"><path d="M0 -7L4.5 -5.4L6.9 -1.2L6.1 3.5L2.4 6.6L-2.4 6.6L-6.1 3.5L-6.9 -1.2L-4.5 -5.4Z" stroke="#353b12" fill="none" stroke-width="2"></path></g><g transform="translate(781 516)"><path d="M0 -13L8.4 -10L12.8 -2.3L11.3 6.5L4.4 12.2L-4.4 12.2L-11.3 6.5L-12.8 -2.3L-8.4 -10Z" stroke="#353b12" fill="none" stroke-width="2"></path></g><g transform="translate(678 596)"><path d="M0 -10L6.4 -7.7L9.8 -1.7L8.7 5L3.4 9.4L-3.4 9.4L-8.7 5L-9.8 -1.7L-6.4 -7.7Z" stroke="#353b12" fill="none" stroke-width="2"></path></g><g transform="translate(68 81)"><path d="M0 -10L6.4 -7.7L9.8 -1.7L8.7 5L3.4 9.4L-3.4 9.4L-8.7 5L-9.8 -1.7L-6.4 -7.7Z" stroke="#353b12" fill="none" stroke-width="2"></path></g><g transform="translate(113 195)"><path d="M0 -5L3.2 -3.8L4.9 -0.9L4.3 2.5L1.7 4.7L-1.7 4.7L-4.3 2.5L-4.9 -0.9L-3.2 -3.8Z" stroke="#353b12" fill="none" stroke-width="2"></path></g><g transform="translate(575 464)"><path d="M0 -7L4.5 -5.4L6.9 -1.2L6.1 3.5L2.4 6.6L-2.4 6.6L-6.1 3.5L-6.9 -1.2L-4.5 -5.4Z" stroke="#353b12" fill="none" stroke-width="2"></path></g><g transform="translate(557 294)"><path d="M0 -13L8.4 -10L12.8 -2.3L11.3 6.5L4.4 12.2L-4.4 12.2L-11.3 6.5L-12.8 -2.3L-8.4 -10Z" stroke="#353b12" fill="none" stroke-width="2"></path></g><g transform="translate(320 516)"><path d="M0 -4L2.6 -3.1L3.9 -0.7L3.5 2L1.4 3.8L-1.4 3.8L-3.5 2L-3.9 -0.7L-2.6 -3.1Z" stroke="#353b12" fill="none" stroke-width="2"></path></g><g transform="translate(519 427)"><path d="M0 -12L7.7 -9.2L11.8 -2.1L10.4 6L4.1 11.3L-4.1 11.3L-10.4 6L-11.8 -2.1L-7.7 -9.2Z" stroke="#353b12" fill="none" stroke-width="2"></path></g><g transform="translate(429 21)"><path d="M0 -7L4.5 -5.4L6.9 -1.2L6.1 3.5L2.4 6.6L-2.4 6.6L-6.1 3.5L-6.9 -1.2L-4.5 -5.4Z" stroke="#353b12" fill="none" stroke-width="2"></path></g><g transform="translate(819 505)"><path d="M0 -7L4.5 -5.4L6.9 -1.2L6.1 3.5L2.4 6.6L-2.4 6.6L-6.1 3.5L-6.9 -1.2L-4.5 -5.4Z" stroke="#353b12" fill="none" stroke-width="2"></path></g><g transform="translate(668 550)"><path d="M0 -11L7.1 -8.4L10.8 -1.9L9.5 5.5L3.8 10.3L-3.8 10.3L-9.5 5.5L-10.8 -1.9L-7.1 -8.4Z" stroke="#353b12" fill="none" stroke-width="2"></path></g><g transform="translate(153 278)"><path d="M0 -3L1.9 -2.3L3 -0.5L2.6 1.5L1 2.8L-1 2.8L-2.6 1.5L-3 -0.5L-1.9 -2.3Z" stroke="#353b12" fill="none" stroke-width="2"></path></g><g transform="translate(618 153)"><path d="M0 -11L7.1 -8.4L10.8 -1.9L9.5 5.5L3.8 10.3L-3.8 10.3L-9.5 5.5L-10.8 -1.9L-7.1 -8.4Z" stroke="#353b12" fill="none" stroke-width="2"></path></g><g transform="translate(227 548)"><path d="M0 -7L4.5 -5.4L6.9 -1.2L6.1 3.5L2.4 6.6L-2.4 6.6L-6.1 3.5L-6.9 -1.2L-4.5 -5.4Z" stroke="#353b12" fill="none" stroke-width="2"></path></g><g transform="translate(330 386)"><path d="M0 -3L1.9 -2.3L3 -0.5L2.6 1.5L1 2.8L-1 2.8L-2.6 1.5L-3 -0.5L-1.9 -2.3Z" stroke="#353b12" fill="none" stroke-width="2"></path></g><g transform="translate(628 578)"><path d="M0 -10L6.4 -7.7L9.8 -1.7L8.7 5L3.4 9.4L-3.4 9.4L-8.7 5L-9.8 -1.7L-6.4 -7.7Z" stroke="#353b12" fill="none" stroke-width="2"></path></g><g transform="translate(712 505)"><path d="M0 -5L3.2 -3.8L4.9 -0.9L4.3 2.5L1.7 4.7L-1.7 4.7L-4.3 2.5L-4.9 -0.9L-3.2 -3.8Z" stroke="#353b12" fill="none" stroke-width="2"></path></g><g transform="translate(147 193)"><path d="M0 -9L5.8 -6.9L8.9 -1.6L7.8 4.5L3.1 8.5L-3.1 8.5L-7.8 4.5L-8.9 -1.6L-5.8 -6.9Z" stroke="#353b12" fill="none" stroke-width="2"></path></g><g transform="translate(2 504)"><path d="M0 -6L3.9 -4.6L5.9 -1L5.2 3L2.1 5.6L-2.1 5.6L-5.2 3L-5.9 -1L-3.9 -4.6Z" stroke="#353b12" fill="none" stroke-width="2"></path></g><g transform="translate(37 344)"><path d="M0 -3L1.9 -2.3L3 -0.5L2.6 1.5L1 2.8L-1 2.8L-2.6 1.5L-3 -0.5L-1.9 -2.3Z" stroke="#353b12" fill="none" stroke-width="2"></path></g><g transform="translate(582 396)"><path d="M0 -5L3.2 -3.8L4.9 -0.9L4.3 2.5L1.7 4.7L-1.7 4.7L-4.3 2.5L-4.9 -0.9L-3.2 -3.8Z" stroke="#353b12" fill="none" stroke-width="2"></path></g><g transform="translate(643 453)"><path d="M0 -13L8.4 -10L12.8 -2.3L11.3 6.5L4.4 12.2L-4.4 12.2L-11.3 6.5L-12.8 -2.3L-8.4 -10Z" stroke="#353b12" fill="none" stroke-width="2"></path></g><g transform="translate(258 443)"><path d="M0 -7L4.5 -5.4L6.9 -1.2L6.1 3.5L2.4 6.6L-2.4 6.6L-6.1 3.5L-6.9 -1.2L-4.5 -5.4Z" stroke="#353b12" fill="none" stroke-width="2"></path></g><g transform="translate(252 286)"><path d="M0 -11L7.1 -8.4L10.8 -1.9L9.5 5.5L3.8 10.3L-3.8 10.3L-9.5 5.5L-10.8 -1.9L-7.1 -8.4Z" stroke="#353b12" fill="none" stroke-width="2"></path></g><g transform="translate(300 456)"><path d="M0 -8L5.1 -6.1L7.9 -1.4L6.9 4L2.7 7.5L-2.7 7.5L-6.9 4L-7.9 -1.4L-5.1 -6.1Z" stroke="#353b12" fill="none" stroke-width="2"></path></g><g transform="translate(135 521)"><path d="M0 -10L6.4 -7.7L9.8 -1.7L8.7 5L3.4 9.4L-3.4 9.4L-8.7 5L-9.8 -1.7L-6.4 -7.7Z" stroke="#353b12" fill="none" stroke-width="2"></path></g><g transform="translate(1 234)"><path d="M0 -5L3.2 -3.8L4.9 -0.9L4.3 2.5L1.7 4.7L-1.7 4.7L-4.3 2.5L-4.9 -0.9L-3.2 -3.8Z" stroke="#353b12" fill="none" stroke-width="2"></path></g><g transform="translate(88 447)"><path d="M0 -10L6.4 -7.7L9.8 -1.7L8.7 5L3.4 9.4L-3.4 9.4L-8.7 5L-9.8 -1.7L-6.4 -7.7Z" stroke="#353b12" fill="none" stroke-width="2"></path></g><g transform="translate(243 116)"><path d="M0 -11L7.1 -8.4L10.8 -1.9L9.5 5.5L3.8 10.3L-3.8 10.3L-9.5 5.5L-10.8 -1.9L-7.1 -8.4Z" stroke="#353b12" fill="none" stroke-width="2"></path></g><g transform="translate(489 97)"><path d="M0 -12L7.7 -9.2L11.8 -2.1L10.4 6L4.1 11.3L-4.1 11.3L-10.4 6L-11.8 -2.1L-7.7 -9.2Z" stroke="#353b12" fill="none" stroke-width="2"></path></g><g transform="translate(551 410)"><path d="M0 -13L8.4 -10L12.8 -2.3L11.3 6.5L4.4 12.2L-4.4 12.2L-11.3 6.5L-12.8 -2.3L-8.4 -10Z" stroke="#353b12" fill="none" stroke-width="2"></path></g><g transform="translate(825 358)"><path d="M0 -10L6.4 -7.7L9.8 -1.7L8.7 5L3.4 9.4L-3.4 9.4L-8.7 5L-9.8 -1.7L-6.4 -7.7Z" stroke="#353b12" fill="none" stroke-width="2"></path></g><g transform="translate(408 528)"><path d="M0 -10L6.4 -7.7L9.8 -1.7L8.7 5L3.4 9.4L-3.4 9.4L-8.7 5L-9.8 -1.7L-6.4 -7.7Z" stroke="#353b12" fill="none" stroke-width="2"></path></g><g transform="translate(449 114)"><path d="M0 -4L2.6 -3.1L3.9 -0.7L3.5 2L1.4 3.8L-1.4 3.8L-3.5 2L-3.9 -0.7L-2.6 -3.1Z" stroke="#353b12" fill="none" stroke-width="2"></path></g><g transform="translate(5 1)"><path d="M0 -7L4.5 -5.4L6.9 -1.2L6.1 3.5L2.4 6.6L-2.4 6.6L-6.1 3.5L-6.9 -1.2L-4.5 -5.4Z" stroke="#353b12" fill="none" stroke-width="2"></path></g><g transform="translate(113 366)"><path d="M0 -4L2.6 -3.1L3.9 -0.7L3.5 2L1.4 3.8L-1.4 3.8L-3.5 2L-3.9 -0.7L-2.6 -3.1Z" stroke="#353b12" fill="none" stroke-width="2"></path></g><g transform="translate(533 540)"><path d="M0 -3L1.9 -2.3L3 -0.5L2.6 1.5L1 2.8L-1 2.8L-2.6 1.5L-3 -0.5L-1.9 -2.3Z" stroke="#353b12" fill="none" stroke-width="2"></path></g><g transform="translate(726 70)"><path d="M0 -6L3.9 -4.6L5.9 -1L5.2 3L2.1 5.6L-2.1 5.6L-5.2 3L-5.9 -1L-3.9 -4.6Z" stroke="#353b12" fill="none" stroke-width="2"></path></g><g transform="translate(859 454)"><path d="M0 -6L3.9 -4.6L5.9 -1L5.2 3L2.1 5.6L-2.1 5.6L-5.2 3L-5.9 -1L-3.9 -4.6Z" stroke="#353b12" fill="none" stroke-width="2"></path></g><g transform="translate(216 336)"><path d="M0 -8L5.1 -6.1L7.9 -1.4L6.9 4L2.7 7.5L-2.7 7.5L-6.9 4L-7.9 -1.4L-5.1 -6.1Z" stroke="#353b12" fill="none" stroke-width="2"></path></g><g transform="translate(758 489)"><path d="M0 -4L2.6 -3.1L3.9 -0.7L3.5 2L1.4 3.8L-1.4 3.8L-3.5 2L-3.9 -0.7L-2.6 -3.1Z" stroke="#353b12" fill="none" stroke-width="2"></path></g><g transform="translate(523 470)"><path d="M0 -8L5.1 -6.1L7.9 -1.4L6.9 4L2.7 7.5L-2.7 7.5L-6.9 4L-7.9 -1.4L-5.1 -6.1Z" stroke="#353b12" fill="none" stroke-width="2"></path></g><g transform="translate(343 79)"><path d="M0 -7L4.5 -5.4L6.9 -1.2L6.1 3.5L2.4 6.6L-2.4 6.6L-6.1 3.5L-6.9 -1.2L-4.5 -5.4Z" stroke="#353b12" fill="none" stroke-width="2"></path></g><g transform="translate(438 250)"><path d="M0 -12L7.7 -9.2L11.8 -2.1L10.4 6L4.1 11.3L-4.1 11.3L-10.4 6L-11.8 -2.1L-7.7 -9.2Z" stroke="#353b12" fill="none" stroke-width="2"></path></g><g transform="translate(520 253)"><path d="M0 -4L2.6 -3.1L3.9 -0.7L3.5 2L1.4 3.8L-1.4 3.8L-3.5 2L-3.9 -0.7L-2.6 -3.1Z" stroke="#353b12" fill="none" stroke-width="2"></path></g><g transform="translate(15 396)"><path d="M0 -4L2.6 -3.1L3.9 -0.7L3.5 2L1.4 3.8L-1.4 3.8L-3.5 2L-3.9 -0.7L-2.6 -3.1Z" stroke="#353b12" fill="none" stroke-width="2"></path></g><g transform="translate(896 236)"><path d="M0 -9L5.8 -6.9L8.9 -1.6L7.8 4.5L3.1 8.5L-3.1 8.5L-7.8 4.5L-8.9 -1.6L-5.8 -6.9Z" stroke="#353b12" fill="none" stroke-width="2"></path></g><g transform="translate(798 398)"><path d="M0 -9L5.8 -6.9L8.9 -1.6L7.8 4.5L3.1 8.5L-3.1 8.5L-7.8 4.5L-8.9 -1.6L-5.8 -6.9Z" stroke="#353b12" fill="none" stroke-width="2"></path></g><g transform="translate(663 272)"><path d="M0 -12L7.7 -9.2L11.8 -2.1L10.4 6L4.1 11.3L-4.1 11.3L-10.4 6L-11.8 -2.1L-7.7 -9.2Z" stroke="#353b12" fill="none" stroke-width="2"></path></g><g transform="translate(50 420)"><path d="M0 -13L8.4 -10L12.8 -2.3L11.3 6.5L4.4 12.2L-4.4 12.2L-11.3 6.5L-12.8 -2.3L-8.4 -10Z" stroke="#353b12" fill="none" stroke-width="2"></path></g><g transform="translate(877 277)"><path d="M0 -9L5.8 -6.9L8.9 -1.6L7.8 4.5L3.1 8.5L-3.1 8.5L-7.8 4.5L-8.9 -1.6L-5.8 -6.9Z" stroke="#353b12" fill="none" stroke-width="2"></path></g><g transform="translate(500 280)"><path d="M0 -9L5.8 -6.9L8.9 -1.6L7.8 4.5L3.1 8.5L-3.1 8.5L-7.8 4.5L-8.9 -1.6L-5.8 -6.9Z" stroke="#353b12" fill="none" stroke-width="2"></path></g><g transform="translate(454 2)"><path d="M0 -10L6.4 -7.7L9.8 -1.7L8.7 5L3.4 9.4L-3.4 9.4L-8.7 5L-9.8 -1.7L-6.4 -7.7Z" stroke="#353b12" fill="none" stroke-width="2"></path></g><g transform="translate(488 329)"><path d="M0 -11L7.1 -8.4L10.8 -1.9L9.5 5.5L3.8 10.3L-3.8 10.3L-9.5 5.5L-10.8 -1.9L-7.1 -8.4Z" stroke="#353b12" fill="none" stroke-width="2"></path></g><g transform="translate(78 206)"><path d="M0 -6L3.9 -4.6L5.9 -1L5.2 3L2.1 5.6L-2.1 5.6L-5.2 3L-5.9 -1L-3.9 -4.6Z" stroke="#353b12" fill="none" stroke-width="2"></path></g><g transform="translate(388 87)"><path d="M0 -5L3.2 -3.8L4.9 -0.9L4.3 2.5L1.7 4.7L-1.7 4.7L-4.3 2.5L-4.9 -0.9L-3.2 -3.8Z" stroke="#353b12" fill="none" stroke-width="2"></path></g><g transform="translate(315 94)"><path d="M0 -5L3.2 -3.8L4.9 -0.9L4.3 2.5L1.7 4.7L-1.7 4.7L-4.3 2.5L-4.9 -0.9L-3.2 -3.8Z" stroke="#353b12" fill="none" stroke-width="2"></path></g><g transform="translate(860 497)"><path d="M0 -6L3.9 -4.6L5.9 -1L5.2 3L2.1 5.6L-2.1 5.6L-5.2 3L-5.9 -1L-3.9 -4.6Z" stroke="#353b12" fill="none" stroke-width="2"></path></g><g transform="translate(268 181)"><path d="M0 -10L6.4 -7.7L9.8 -1.7L8.7 5L3.4 9.4L-3.4 9.4L-8.7 5L-9.8 -1.7L-6.4 -7.7Z" stroke="#353b12" fill="none" stroke-width="2"></path></g><g transform="translate(693 6)"><path d="M0 -6L3.9 -4.6L5.9 -1L5.2 3L2.1 5.6L-2.1 5.6L-5.2 3L-5.9 -1L-3.9 -4.6Z" stroke="#353b12" fill="none" stroke-width="2"></path></g><g transform="translate(862 328)"><path d="M0 -9L5.8 -6.9L8.9 -1.6L7.8 4.5L3.1 8.5L-3.1 8.5L-7.8 4.5L-8.9 -1.6L-5.8 -6.9Z" stroke="#353b12" fill="none" stroke-width="2"></path></g><g transform="translate(702 147)"><path d="M0 -12L7.7 -9.2L11.8 -2.1L10.4 6L4.1 11.3L-4.1 11.3L-10.4 6L-11.8 -2.1L-7.7 -9.2Z" stroke="#353b12" fill="none" stroke-width="2"></path></g><g transform="translate(149 57)"><path d="M0 -5L3.2 -3.8L4.9 -0.9L4.3 2.5L1.7 4.7L-1.7 4.7L-4.3 2.5L-4.9 -0.9L-3.2 -3.8Z" stroke="#353b12" fill="none" stroke-width="2"></path></g><g transform="translate(292 338)"><path d="M0 -6L3.9 -4.6L5.9 -1L5.2 3L2.1 5.6L-2.1 5.6L-5.2 3L-5.9 -1L-3.9 -4.6Z" stroke="#353b12" fill="none" stroke-width="2"></path></g><g transform="translate(388 372)"><path d="M0 -12L7.7 -9.2L11.8 -2.1L10.4 6L4.1 11.3L-4.1 11.3L-10.4 6L-11.8 -2.1L-7.7 -9.2Z" stroke="#353b12" fill="none" stroke-width="2"></path></g><g transform="translate(225 251)"><path d="M0 -5L3.2 -3.8L4.9 -0.9L4.3 2.5L1.7 4.7L-1.7 4.7L-4.3 2.5L-4.9 -0.9L-3.2 -3.8Z" stroke="#353b12" fill="none" stroke-width="2"></path></g><g transform="translate(827 112)"><path d="M0 -12L7.7 -9.2L11.8 -2.1L10.4 6L4.1 11.3L-4.1 11.3L-10.4 6L-11.8 -2.1L-7.7 -9.2Z" stroke="#353b12" fill="none" stroke-width="2"></path></g><g transform="translate(590 55)"><path d="M0 -9L5.8 -6.9L8.9 -1.6L7.8 4.5L3.1 8.5L-3.1 8.5L-7.8 4.5L-8.9 -1.6L-5.8 -6.9Z" stroke="#353b12" fill="none" stroke-width="2"></path></g><g transform="translate(385 483)"><path d="M0 -6L3.9 -4.6L5.9 -1L5.2 3L2.1 5.6L-2.1 5.6L-5.2 3L-5.9 -1L-3.9 -4.6Z" stroke="#353b12" fill="none" stroke-width="2"></path></g><g transform="translate(870 59)"><path d="M0 -3L1.9 -2.3L3 -0.5L2.6 1.5L1 2.8L-1 2.8L-2.6 1.5L-3 -0.5L-1.9 -2.3Z" stroke="#353b12" fill="none" stroke-width="2"></path></g><g transform="translate(845 86)"><path d="M0 -3L1.9 -2.3L3 -0.5L2.6 1.5L1 2.8L-1 2.8L-2.6 1.5L-3 -0.5L-1.9 -2.3Z" stroke="#353b12" fill="none" stroke-width="2"></path></g><g transform="translate(368 329)"><path d="M0 -9L5.8 -6.9L8.9 -1.6L7.8 4.5L3.1 8.5L-3.1 8.5L-7.8 4.5L-8.9 -1.6L-5.8 -6.9Z" stroke="#353b12" fill="none" stroke-width="2"></path></g><g transform="translate(557 371)"><path d="M0 -12L7.7 -9.2L11.8 -2.1L10.4 6L4.1 11.3L-4.1 11.3L-10.4 6L-11.8 -2.1L-7.7 -9.2Z" stroke="#353b12" fill="none" stroke-width="2"></path></g><g transform="translate(753 199)"><path d="M0 -3L1.9 -2.3L3 -0.5L2.6 1.5L1 2.8L-1 2.8L-2.6 1.5L-3 -0.5L-1.9 -2.3Z" stroke="#353b12" fill="none" stroke-width="2"></path></g><g transform="translate(539 17)"><path d="M0 -10L6.4 -7.7L9.8 -1.7L8.7 5L3.4 9.4L-3.4 9.4L-8.7 5L-9.8 -1.7L-6.4 -7.7Z" stroke="#353b12" fill="none" stroke-width="2"></path></g><g transform="translate(606 306)"><path d="M0 -7L4.5 -5.4L6.9 -1.2L6.1 3.5L2.4 6.6L-2.4 6.6L-6.1 3.5L-6.9 -1.2L-4.5 -5.4Z" stroke="#353b12" fill="none" stroke-width="2"></path></g><g transform="translate(816 329)"><path d="M0 -7L4.5 -5.4L6.9 -1.2L6.1 3.5L2.4 6.6L-2.4 6.6L-6.1 3.5L-6.9 -1.2L-4.5 -5.4Z" stroke="#353b12" fill="none" stroke-width="2"></path></g><g transform="translate(104 147)"><path d="M0 -5L3.2 -3.8L4.9 -0.9L4.3 2.5L1.7 4.7L-1.7 4.7L-4.3 2.5L-4.9 -0.9L-3.2 -3.8Z" stroke="#353b12" fill="none" stroke-width="2"></path></g><g transform="translate(453 42)"><path d="M0 -9L5.8 -6.9L8.9 -1.6L7.8 4.5L3.1 8.5L-3.1 8.5L-7.8 4.5L-8.9 -1.6L-5.8 -6.9Z" stroke="#353b12" fill="none" stroke-width="2"></path></g><g transform="translate(692 118)"><path d="M0 -11L7.1 -8.4L10.8 -1.9L9.5 5.5L3.8 10.3L-3.8 10.3L-9.5 5.5L-10.8 -1.9L-7.1 -8.4Z" stroke="#353b12" fill="none" stroke-width="2"></path></g><g transform="translate(163 85)"><path d="M0 -8L5.1 -6.1L7.9 -1.4L6.9 4L2.7 7.5L-2.7 7.5L-6.9 4L-7.9 -1.4L-5.1 -6.1Z" stroke="#353b12" fill="none" stroke-width="2"></path></g><g transform="translate(672 183)"><path d="M0 -3L1.9 -2.3L3 -0.5L2.6 1.5L1 2.8L-1 2.8L-2.6 1.5L-3 -0.5L-1.9 -2.3Z" stroke="#353b12" fill="none" stroke-width="2"></path></g><g transform="translate(458 541)"><path d="M0 -4L2.6 -3.1L3.9 -0.7L3.5 2L1.4 3.8L-1.4 3.8L-3.5 2L-3.9 -0.7L-2.6 -3.1Z" stroke="#353b12" fill="none" stroke-width="2"></path></g><g transform="translate(627 486)"><path d="M0 -8L5.1 -6.1L7.9 -1.4L6.9 4L2.7 7.5L-2.7 7.5L-6.9 4L-7.9 -1.4L-5.1 -6.1Z" stroke="#353b12" fill="none" stroke-width="2"></path></g><g transform="translate(383 297)"><path d="M0 -11L7.1 -8.4L10.8 -1.9L9.5 5.5L3.8 10.3L-3.8 10.3L-9.5 5.5L-10.8 -1.9L-7.1 -8.4Z" stroke="#353b12" fill="none" stroke-width="2"></path></g><g transform="translate(174 22)"><path d="M0 -11L7.1 -8.4L10.8 -1.9L9.5 5.5L3.8 10.3L-3.8 10.3L-9.5 5.5L-10.8 -1.9L-7.1 -8.4Z" stroke="#353b12" fill="none" stroke-width="2"></path></g><g transform="translate(215 209)"><path d="M0 -13L8.4 -10L12.8 -2.3L11.3 6.5L4.4 12.2L-4.4 12.2L-11.3 6.5L-12.8 -2.3L-8.4 -10Z" stroke="#353b12" fill="none" stroke-width="2"></path></g><g transform="translate(515 507)"><path d="M0 -6L3.9 -4.6L5.9 -1L5.2 3L2.1 5.6L-2.1 5.6L-5.2 3L-5.9 -1L-3.9 -4.6Z" stroke="#353b12" fill="none" stroke-width="2"></path></g><g transform="translate(636 237)"><path d="M0 -13L8.4 -10L12.8 -2.3L11.3 6.5L4.4 12.2L-4.4 12.2L-11.3 6.5L-12.8 -2.3L-8.4 -10Z" stroke="#353b12" fill="none" stroke-width="2"></path></g><g transform="translate(298 33)"><path d="M0 -3L1.9 -2.3L3 -0.5L2.6 1.5L1 2.8L-1 2.8L-2.6 1.5L-3 -0.5L-1.9 -2.3Z" stroke="#353b12" fill="none" stroke-width="2"></path></g><g transform="translate(401 433)"><path d="M0 -5L3.2 -3.8L4.9 -0.9L4.3 2.5L1.7 4.7L-1.7 4.7L-4.3 2.5L-4.9 -0.9L-3.2 -3.8Z" stroke="#353b12" fill="none" stroke-width="2"></path></g><g transform="translate(111 111)"><path d="M0 -11L7.1 -8.4L10.8 -1.9L9.5 5.5L3.8 10.3L-3.8 10.3L-9.5 5.5L-10.8 -1.9L-7.1 -8.4Z" stroke="#353b12" fill="none" stroke-width="2"></path></g><g transform="translate(334 27)"><path d="M0 -7L4.5 -5.4L6.9 -1.2L6.1 3.5L2.4 6.6L-2.4 6.6L-6.1 3.5L-6.9 -1.2L-4.5 -5.4Z" stroke="#353b12" fill="none" stroke-width="2"></path></g><g transform="translate(213 124)"><path d="M0 -4L2.6 -3.1L3.9 -0.7L3.5 2L1.4 3.8L-1.4 3.8L-3.5 2L-3.9 -0.7L-2.6 -3.1Z" stroke="#353b12" fill="none" stroke-width="2"></path></g><g transform="translate(392 164)"><path d="M0 -5L3.2 -3.8L4.9 -0.9L4.3 2.5L1.7 4.7L-1.7 4.7L-4.3 2.5L-4.9 -0.9L-3.2 -3.8Z" stroke="#353b12" fill="none" stroke-width="2"></path></g><g transform="translate(416 217)"><path d="M0 -8L5.1 -6.1L7.9 -1.4L6.9 4L2.7 7.5L-2.7 7.5L-6.9 4L-7.9 -1.4L-5.1 -6.1Z" stroke="#353b12" fill="none" stroke-width="2"></path></g><g transform="translate(777 52)"><path d="M0 -3L1.9 -2.3L3 -0.5L2.6 1.5L1 2.8L-1 2.8L-2.6 1.5L-3 -0.5L-1.9 -2.3Z" stroke="#353b12" fill="none" stroke-width="2"></path></g><g transform="translate(742 521)"><path d="M0 -12L7.7 -9.2L11.8 -2.1L10.4 6L4.1 11.3L-4.1 11.3L-10.4 6L-11.8 -2.1L-7.7 -9.2Z" stroke="#353b12" fill="none" stroke-width="2"></path></g><g transform="translate(30 271)"><path d="M0 -7L4.5 -5.4L6.9 -1.2L6.1 3.5L2.4 6.6L-2.4 6.6L-6.1 3.5L-6.9 -1.2L-4.5 -5.4Z" stroke="#353b12" fill="none" stroke-width="2"></path></g><g transform="translate(3 533)"><path d="M0 -6L3.9 -4.6L5.9 -1L5.2 3L2.1 5.6L-2.1 5.6L-5.2 3L-5.9 -1L-3.9 -4.6Z" stroke="#353b12" fill="none" stroke-width="2"></path></g><g transform="translate(731 42)"><path d="M0 -8L5.1 -6.1L7.9 -1.4L6.9 4L2.7 7.5L-2.7 7.5L-6.9 4L-7.9 -1.4L-5.1 -6.1Z" stroke="#353b12" fill="none" stroke-width="2"></path></g><g transform="translate(35 444)"><path d="M0 -6L3.9 -4.6L5.9 -1L5.2 3L2.1 5.6L-2.1 5.6L-5.2 3L-5.9 -1L-3.9 -4.6Z" stroke="#353b12" fill="none" stroke-width="2"></path></g><g transform="translate(346 112)"><path d="M0 -4L2.6 -3.1L3.9 -0.7L3.5 2L1.4 3.8L-1.4 3.8L-3.5 2L-3.9 -0.7L-2.6 -3.1Z" stroke="#353b12" fill="none" stroke-width="2"></path></g><g transform="translate(518 591)"><path d="M0 -9L5.8 -6.9L8.9 -1.6L7.8 4.5L3.1 8.5L-3.1 8.5L-7.8 4.5L-8.9 -1.6L-5.8 -6.9Z" stroke="#353b12" fill="none" stroke-width="2"></path></g><g transform="translate(268 492)"><path d="M0 -11L7.1 -8.4L10.8 -1.9L9.5 5.5L3.8 10.3L-3.8 10.3L-9.5 5.5L-10.8 -1.9L-7.1 -8.4Z" stroke="#353b12" fill="none" stroke-width="2"></path></g><g transform="translate(211 50)"><path d="M0 -7L4.5 -5.4L6.9 -1.2L6.1 3.5L2.4 6.6L-2.4 6.6L-6.1 3.5L-6.9 -1.2L-4.5 -5.4Z" stroke="#353b12" fill="none" stroke-width="2"></path></g><g transform="translate(26 486)"><path d="M0 -7L4.5 -5.4L6.9 -1.2L6.1 3.5L2.4 6.6L-2.4 6.6L-6.1 3.5L-6.9 -1.2L-4.5 -5.4Z" stroke="#353b12" fill="none" stroke-width="2"></path></g><g transform="translate(138 105)"><path d="M0 -8L5.1 -6.1L7.9 -1.4L6.9 4L2.7 7.5L-2.7 7.5L-6.9 4L-7.9 -1.4L-5.1 -6.1Z" stroke="#353b12" fill="none" stroke-width="2"></path></g><g transform="translate(83 171)"><path d="M0 -12L7.7 -9.2L11.8 -2.1L10.4 6L4.1 11.3L-4.1 11.3L-10.4 6L-11.8 -2.1L-7.7 -9.2Z" stroke="#353b12" fill="none" stroke-width="2"></path></g><g transform="translate(108 540)"><path d="M0 -3L1.9 -2.3L3 -0.5L2.6 1.5L1 2.8L-1 2.8L-2.6 1.5L-3 -0.5L-1.9 -2.3Z" stroke="#353b12" fill="none" stroke-width="2"></path></g><g transform="translate(392 585)"><path d="M0 -8L5.1 -6.1L7.9 -1.4L6.9 4L2.7 7.5L-2.7 7.5L-6.9 4L-7.9 -1.4L-5.1 -6.1Z" stroke="#353b12" fill="none" stroke-width="2"></path></g><g transform="translate(441 507)"><path d="M0 -5L3.2 -3.8L4.9 -0.9L4.3 2.5L1.7 4.7L-1.7 4.7L-4.3 2.5L-4.9 -0.9L-3.2 -3.8Z" stroke="#353b12" fill="none" stroke-width="2"></path></g><g transform="translate(833 147)"><path d="M0 -7L4.5 -5.4L6.9 -1.2L6.1 3.5L2.4 6.6L-2.4 6.6L-6.1 3.5L-6.9 -1.2L-4.5 -5.4Z" stroke="#353b12" fill="none" stroke-width="2"></path></g><g transform="translate(445 467)"><path d="M0 -10L6.4 -7.7L9.8 -1.7L8.7 5L3.4 9.4L-3.4 9.4L-8.7 5L-9.8 -1.7L-6.4 -7.7Z" stroke="#353b12" fill="none" stroke-width="2"></path></g><g transform="translate(457 328)"><path d="M0 -12L7.7 -9.2L11.8 -2.1L10.4 6L4.1 11.3L-4.1 11.3L-10.4 6L-11.8 -2.1L-7.7 -9.2Z" stroke="#353b12" fill="none" stroke-width="2"></path></g><g transform="translate(69 540)"><path d="M0 -13L8.4 -10L12.8 -2.3L11.3 6.5L4.4 12.2L-4.4 12.2L-11.3 6.5L-12.8 -2.3L-8.4 -10Z" stroke="#353b12" fill="none" stroke-width="2"></path></g><g transform="translate(86 399)"><path d="M0 -3L1.9 -2.3L3 -0.5L2.6 1.5L1 2.8L-1 2.8L-2.6 1.5L-3 -0.5L-1.9 -2.3Z" stroke="#353b12" fill="none" stroke-width="2"></path></g><g transform="translate(598 553)"><path d="M0 -4L2.6 -3.1L3.9 -0.7L3.5 2L1.4 3.8L-1.4 3.8L-3.5 2L-3.9 -0.7L-2.6 -3.1Z" stroke="#353b12" fill="none" stroke-width="2"></path></g><g transform="translate(343 272)"><path d="M0 -5L3.2 -3.8L4.9 -0.9L4.3 2.5L1.7 4.7L-1.7 4.7L-4.3 2.5L-4.9 -0.9L-3.2 -3.8Z" stroke="#353b12" fill="none" stroke-width="2"></path></g><g transform="translate(114 483)"><path d="M0 -11L7.1 -8.4L10.8 -1.9L9.5 5.5L3.8 10.3L-3.8 10.3L-9.5 5.5L-10.8 -1.9L-7.1 -8.4Z" stroke="#353b12" fill="none" stroke-width="2"></path></g><g transform="translate(521 74)"><path d="M0 -10L6.4 -7.7L9.8 -1.7L8.7 5L3.4 9.4L-3.4 9.4L-8.7 5L-9.8 -1.7L-6.4 -7.7Z" stroke="#353b12" fill="none" stroke-width="2"></path></g><g transform="translate(776 358)"><path d="M0 -6L3.9 -4.6L5.9 -1L5.2 3L2.1 5.6L-2.1 5.6L-5.2 3L-5.9 -1L-3.9 -4.6Z" stroke="#353b12" fill="none" stroke-width="2"></path></g><g transform="translate(694 397)"><path d="M0 -6L3.9 -4.6L5.9 -1L5.2 3L2.1 5.6L-2.1 5.6L-5.2 3L-5.9 -1L-3.9 -4.6Z" stroke="#353b12" fill="none" stroke-width="2"></path></g><g transform="translate(436 283)"><path d="M0 -9L5.8 -6.9L8.9 -1.6L7.8 4.5L3.1 8.5L-3.1 8.5L-7.8 4.5L-8.9 -1.6L-5.8 -6.9Z" stroke="#353b12" fill="none" stroke-width="2"></path></g><g transform="translate(607 457)"><path d="M0 -4L2.6 -3.1L3.9 -0.7L3.5 2L1.4 3.8L-1.4 3.8L-3.5 2L-3.9 -0.7L-2.6 -3.1Z" stroke="#353b12" fill="none" stroke-width="2"></path></g><g transform="translate(852 28)"><path d="M0 -12L7.7 -9.2L11.8 -2.1L10.4 6L4.1 11.3L-4.1 11.3L-10.4 6L-11.8 -2.1L-7.7 -9.2Z" stroke="#353b12" fill="none" stroke-width="2"></path></g><g transform="translate(451 371)"><path d="M0 -3L1.9 -2.3L3 -0.5L2.6 1.5L1 2.8L-1 2.8L-2.6 1.5L-3 -0.5L-1.9 -2.3Z" stroke="#353b12" fill="none" stroke-width="2"></path></g><g transform="translate(343 239)"><path d="M0 -5L3.2 -3.8L4.9 -0.9L4.3 2.5L1.7 4.7L-1.7 4.7L-4.3 2.5L-4.9 -0.9L-3.2 -3.8Z" stroke="#353b12" fill="none" stroke-width="2"></path></g><g transform="translate(463 230)"><path d="M0 -7L4.5 -5.4L6.9 -1.2L6.1 3.5L2.4 6.6L-2.4 6.6L-6.1 3.5L-6.9 -1.2L-4.5 -5.4Z" stroke="#353b12" fill="none" stroke-width="2"></path></g><g transform="translate(181 144)"><path d="M0 -4L2.6 -3.1L3.9 -0.7L3.5 2L1.4 3.8L-1.4 3.8L-3.5 2L-3.9 -0.7L-2.6 -3.1Z" stroke="#353b12" fill="none" stroke-width="2"></path></g><g transform="translate(394 256)"><path d="M0 -5L3.2 -3.8L4.9 -0.9L4.3 2.5L1.7 4.7L-1.7 4.7L-4.3 2.5L-4.9 -0.9L-3.2 -3.8Z" stroke="#353b12" fill="none" stroke-width="2"></path></g><g transform="translate(717 423)"><path d="M0 -9L5.8 -6.9L8.9 -1.6L7.8 4.5L3.1 8.5L-3.1 8.5L-7.8 4.5L-8.9 -1.6L-5.8 -6.9Z" stroke="#353b12" fill="none" stroke-width="2"></path></g><g transform="translate(249 513)"><path d="M0 -9L5.8 -6.9L8.9 -1.6L7.8 4.5L3.1 8.5L-3.1 8.5L-7.8 4.5L-8.9 -1.6L-5.8 -6.9Z" stroke="#353b12" fill="none" stroke-width="2"></path></g><g transform="translate(416 81)"><path d="M0 -12L7.7 -9.2L11.8 -2.1L10.4 6L4.1 11.3L-4.1 11.3L-10.4 6L-11.8 -2.1L-7.7 -9.2Z" stroke="#353b12" fill="none" stroke-width="2"></path></g><g transform="translate(290 514)"><path d="M0 -5L3.2 -3.8L4.9 -0.9L4.3 2.5L1.7 4.7L-1.7 4.7L-4.3 2.5L-4.9 -0.9L-3.2 -3.8Z" stroke="#353b12" fill="none" stroke-width="2"></path></g><g transform="translate(520 154)"><path d="M0 -5L3.2 -3.8L4.9 -0.9L4.3 2.5L1.7 4.7L-1.7 4.7L-4.3 2.5L-4.9 -0.9L-3.2 -3.8Z" stroke="#353b12" fill="none" stroke-width="2"></path></g><g transform="translate(732 365)"><path d="M0 -9L5.8 -6.9L8.9 -1.6L7.8 4.5L3.1 8.5L-3.1 8.5L-7.8 4.5L-8.9 -1.6L-5.8 -6.9Z" stroke="#353b12" fill="none" stroke-width="2"></path></g><g transform="translate(381 15)"><path d="M0 -12L7.7 -9.2L11.8 -2.1L10.4 6L4.1 11.3L-4.1 11.3L-10.4 6L-11.8 -2.1L-7.7 -9.2Z" stroke="#353b12" fill="none" stroke-width="2"></path></g><g transform="translate(789 305)"><path d="M0 -10L6.4 -7.7L9.8 -1.7L8.7 5L3.4 9.4L-3.4 9.4L-8.7 5L-9.8 -1.7L-6.4 -7.7Z" stroke="#353b12" fill="none" stroke-width="2"></path></g><g transform="translate(129 571)"><path d="M0 -3L1.9 -2.3L3 -0.5L2.6 1.5L1 2.8L-1 2.8L-2.6 1.5L-3 -0.5L-1.9 -2.3Z" stroke="#353b12" fill="none" stroke-width="2"></path></g><g transform="translate(609 84)"><path d="M0 -6L3.9 -4.6L5.9 -1L5.2 3L2.1 5.6L-2.1 5.6L-5.2 3L-5.9 -1L-3.9 -4.6Z" stroke="#353b12" fill="none" stroke-width="2"></path></g><g transform="translate(465 287)"><path d="M0 -10L6.4 -7.7L9.8 -1.7L8.7 5L3.4 9.4L-3.4 9.4L-8.7 5L-9.8 -1.7L-6.4 -7.7Z" stroke="#353b12" fill="none" stroke-width="2"></path></g><g transform="translate(310 6)"><path d="M0 -5L3.2 -3.8L4.9 -0.9L4.3 2.5L1.7 4.7L-1.7 4.7L-4.3 2.5L-4.9 -0.9L-3.2 -3.8Z" stroke="#353b12" fill="none" stroke-width="2"></path></g><g transform="translate(380 191)"><path d="M0 -11L7.1 -8.4L10.8 -1.9L9.5 5.5L3.8 10.3L-3.8 10.3L-9.5 5.5L-10.8 -1.9L-7.1 -8.4Z" stroke="#353b12" fill="none" stroke-width="2"></path></g><g transform="translate(875 587)"><path d="M0 -9L5.8 -6.9L8.9 -1.6L7.8 4.5L3.1 8.5L-3.1 8.5L-7.8 4.5L-8.9 -1.6L-5.8 -6.9Z" stroke="#353b12" fill="none" stroke-width="2"></path></g><g transform="translate(408 281)"><path d="M0 -8L5.1 -6.1L7.9 -1.4L6.9 4L2.7 7.5L-2.7 7.5L-6.9 4L-7.9 -1.4L-5.1 -6.1Z" stroke="#353b12" fill="none" stroke-width="2"></path></g><g transform="translate(343 597)"><path d="M0 -13L8.4 -10L12.8 -2.3L11.3 6.5L4.4 12.2L-4.4 12.2L-11.3 6.5L-12.8 -2.3L-8.4 -10Z" stroke="#353b12" fill="none" stroke-width="2"></path></g><g transform="translate(217 370)"><path d="M0 -4L2.6 -3.1L3.9 -0.7L3.5 2L1.4 3.8L-1.4 3.8L-3.5 2L-3.9 -0.7L-2.6 -3.1Z" stroke="#353b12" fill="none" stroke-width="2"></path></g><g transform="translate(234 27)"><path d="M0 -6L3.9 -4.6L5.9 -1L5.2 3L2.1 5.6L-2.1 5.6L-5.2 3L-5.9 -1L-3.9 -4.6Z" stroke="#353b12" fill="none" stroke-width="2"></path></g><g transform="translate(801 209)"><path d="M0 -8L5.1 -6.1L7.9 -1.4L6.9 4L2.7 7.5L-2.7 7.5L-6.9 4L-7.9 -1.4L-5.1 -6.1Z" stroke="#353b12" fill="none" stroke-width="2"></path></g><g transform="translate(128 259)"><path d="M0 -10L6.4 -7.7L9.8 -1.7L8.7 5L3.4 9.4L-3.4 9.4L-8.7 5L-9.8 -1.7L-6.4 -7.7Z" stroke="#353b12" fill="none" stroke-width="2"></path></g><g transform="translate(301 375)"><path d="M0 -6L3.9 -4.6L5.9 -1L5.2 3L2.1 5.6L-2.1 5.6L-5.2 3L-5.9 -1L-3.9 -4.6Z" stroke="#353b12" fill="none" stroke-width="2"></path></g><g transform="translate(888 195)"><path d="M0 -4L2.6 -3.1L3.9 -0.7L3.5 2L1.4 3.8L-1.4 3.8L-3.5 2L-3.9 -0.7L-2.6 -3.1Z" stroke="#353b12" fill="none" stroke-width="2"></path></g><g transform="translate(844 269)"><path d="M0 -10L6.4 -7.7L9.8 -1.7L8.7 5L3.4 9.4L-3.4 9.4L-8.7 5L-9.8 -1.7L-6.4 -7.7Z" stroke="#353b12" fill="none" stroke-width="2"></path></g><g transform="translate(276 415)"><path d="M0 -8L5.1 -6.1L7.9 -1.4L6.9 4L2.7 7.5L-2.7 7.5L-6.9 4L-7.9 -1.4L-5.1 -6.1Z" stroke="#353b12" fill="none" stroke-width="2"></path></g><g transform="translate(766 276)"><path d="M0 -9L5.8 -6.9L8.9 -1.6L7.8 4.5L3.1 8.5L-3.1 8.5L-7.8 4.5L-8.9 -1.6L-5.8 -6.9Z" stroke="#353b12" fill="none" stroke-width="2"></path></g><g transform="translate(830 477)"><path d="M0 -7L4.5 -5.4L6.9 -1.2L6.1 3.5L2.4 6.6L-2.4 6.6L-6.1 3.5L-6.9 -1.2L-4.5 -5.4Z" stroke="#353b12" fill="none" stroke-width="2"></path></g><g transform="translate(760 161)"><path d="M0 -7L4.5 -5.4L6.9 -1.2L6.1 3.5L2.4 6.6L-2.4 6.6L-6.1 3.5L-6.9 -1.2L-4.5 -5.4Z" stroke="#353b12" fill="none" stroke-width="2"></path></g><g transform="translate(568 509)"><path d="M0 -12L7.7 -9.2L11.8 -2.1L10.4 6L4.1 11.3L-4.1 11.3L-10.4 6L-11.8 -2.1L-7.7 -9.2Z" stroke="#353b12" fill="none" stroke-width="2"></path></g><g transform="translate(666 46)"><path d="M0 -6L3.9 -4.6L5.9 -1L5.2 3L2.1 5.6L-2.1 5.6L-5.2 3L-5.9 -1L-3.9 -4.6Z" stroke="#353b12" fill="none" stroke-width="2"></path></g><g transform="translate(596 348)"><path d="M0 -9L5.8 -6.9L8.9 -1.6L7.8 4.5L3.1 8.5L-3.1 8.5L-7.8 4.5L-8.9 -1.6L-5.8 -6.9Z" stroke="#353b12" fill="none" stroke-width="2"></path></g><g transform="translate(527 347)"><path d="M0 -10L6.4 -7.7L9.8 -1.7L8.7 5L3.4 9.4L-3.4 9.4L-8.7 5L-9.8 -1.7L-6.4 -7.7Z" stroke="#353b12" fill="none" stroke-width="2"></path></g><g transform="translate(425 174)"><path d="M0 -8L5.1 -6.1L7.9 -1.4L6.9 4L2.7 7.5L-2.7 7.5L-6.9 4L-7.9 -1.4L-5.1 -6.1Z" stroke="#353b12" fill="none" stroke-width="2"></path></g><g transform="translate(714 295)"><path d="M0 -12L7.7 -9.2L11.8 -2.1L10.4 6L4.1 11.3L-4.1 11.3L-10.4 6L-11.8 -2.1L-7.7 -9.2Z" stroke="#353b12" fill="none" stroke-width="2"></path></g><g transform="translate(319 137)"><path d="M0 -7L4.5 -5.4L6.9 -1.2L6.1 3.5L2.4 6.6L-2.4 6.6L-6.1 3.5L-6.9 -1.2L-4.5 -5.4Z" stroke="#353b12" fill="none" stroke-width="2"></path></g><g transform="translate(578 85)"><path d="M0 -3L1.9 -2.3L3 -0.5L2.6 1.5L1 2.8L-1 2.8L-2.6 1.5L-3 -0.5L-1.9 -2.3Z" stroke="#353b12" fill="none" stroke-width="2"></path></g><g transform="translate(187 598)"><path d="M0 -6L3.9 -4.6L5.9 -1L5.2 3L2.1 5.6L-2.1 5.6L-5.2 3L-5.9 -1L-3.9 -4.6Z" stroke="#353b12" fill="none" stroke-width="2"></path></g><g transform="translate(585 21)"><path d="M0 -12L7.7 -9.2L11.8 -2.1L10.4 6L4.1 11.3L-4.1 11.3L-10.4 6L-11.8 -2.1L-7.7 -9.2Z" stroke="#353b12" fill="none" stroke-width="2"></path></g><g transform="translate(142 343)"><path d="M0 -11L7.1 -8.4L10.8 -1.9L9.5 5.5L3.8 10.3L-3.8 10.3L-9.5 5.5L-10.8 -1.9L-7.1 -8.4Z" stroke="#353b12" fill="none" stroke-width="2"></path></g><g transform="translate(73 144)"><path d="M0 -7L4.5 -5.4L6.9 -1.2L6.1 3.5L2.4 6.6L-2.4 6.6L-6.1 3.5L-6.9 -1.2L-4.5 -5.4Z" stroke="#353b12" fill="none" stroke-width="2"></path></g><g transform="translate(430 594)"><path d="M0 -11L7.1 -8.4L10.8 -1.9L9.5 5.5L3.8 10.3L-3.8 10.3L-9.5 5.5L-10.8 -1.9L-7.1 -8.4Z" stroke="#353b12" fill="none" stroke-width="2"></path></g><g transform="translate(305 294)"><path d="M0 -5L3.2 -3.8L4.9 -0.9L4.3 2.5L1.7 4.7L-1.7 4.7L-4.3 2.5L-4.9 -0.9L-3.2 -3.8Z" stroke="#353b12" fill="none" stroke-width="2"></path></g><g transform="translate(697 346)"><path d="M0 -5L3.2 -3.8L4.9 -0.9L4.3 2.5L1.7 4.7L-1.7 4.7L-4.3 2.5L-4.9 -0.9L-3.2 -3.8Z" stroke="#353b12" fill="none" stroke-width="2"></path></g><g transform="translate(34 45)"><path d="M0 -9L5.8 -6.9L8.9 -1.6L7.8 4.5L3.1 8.5L-3.1 8.5L-7.8 4.5L-8.9 -1.6L-5.8 -6.9Z" stroke="#353b12" fill="none" stroke-width="2"></path></g><g transform="translate(660 494)"><path d="M0 -6L3.9 -4.6L5.9 -1L5.2 3L2.1 5.6L-2.1 5.6L-5.2 3L-5.9 -1L-3.9 -4.6Z" stroke="#353b12" fill="none" stroke-width="2"></path></g><g transform="translate(312 250)"><path d="M0 -11L7.1 -8.4L10.8 -1.9L9.5 5.5L3.8 10.3L-3.8 10.3L-9.5 5.5L-10.8 -1.9L-7.1 -8.4Z" stroke="#353b12" fill="none" stroke-width="2"></path></g><g transform="translate(493 44)"><path d="M0 -7L4.5 -5.4L6.9 -1.2L6.1 3.5L2.4 6.6L-2.4 6.6L-6.1 3.5L-6.9 -1.2L-4.5 -5.4Z" stroke="#353b12" fill="none" stroke-width="2"></path></g><g transform="translate(359 405)"><path d="M0 -6L3.9 -4.6L5.9 -1L5.2 3L2.1 5.6L-2.1 5.6L-5.2 3L-5.9 -1L-3.9 -4.6Z" stroke="#353b12" fill="none" stroke-width="2"></path></g><g transform="translate(487 186)"><path d="M0 -12L7.7 -9.2L11.8 -2.1L10.4 6L4.1 11.3L-4.1 11.3L-10.4 6L-11.8 -2.1L-7.7 -9.2Z" stroke="#353b12" fill="none" stroke-width="2"></path></g><g transform="translate(579 325)"><path d="M0 -5L3.2 -3.8L4.9 -0.9L4.3 2.5L1.7 4.7L-1.7 4.7L-4.3 2.5L-4.9 -0.9L-3.2 -3.8Z" stroke="#353b12" fill="none" stroke-width="2"></path></g><g transform="translate(481 11)"><path d="M0 -13L8.4 -10L12.8 -2.3L11.3 6.5L4.4 12.2L-4.4 12.2L-11.3 6.5L-12.8 -2.3L-8.4 -10Z" stroke="#353b12" fill="none" stroke-width="2"></path></g><g transform="translate(63 270)"><path d="M0 -5L3.2 -3.8L4.9 -0.9L4.3 2.5L1.7 4.7L-1.7 4.7L-4.3 2.5L-4.9 -0.9L-3.2 -3.8Z" stroke="#353b12" fill="none" stroke-width="2"></path></g><g transform="translate(310 566)"><path d="M0 -11L7.1 -8.4L10.8 -1.9L9.5 5.5L3.8 10.3L-3.8 10.3L-9.5 5.5L-10.8 -1.9L-7.1 -8.4Z" stroke="#353b12" fill="none" stroke-width="2"></path></g><g transform="translate(5 163)"><path d="M0 -6L3.9 -4.6L5.9 -1L5.2 3L2.1 5.6L-2.1 5.6L-5.2 3L-5.9 -1L-3.9 -4.6Z" stroke="#353b12" fill="none" stroke-width="2"></path></g><g transform="translate(21 139)"><path d="M0 -9L5.8 -6.9L8.9 -1.6L7.8 4.5L3.1 8.5L-3.1 8.5L-7.8 4.5L-8.9 -1.6L-5.8 -6.9Z" stroke="#353b12" fill="none" stroke-width="2"></path></g><g transform="translate(402 117)"><path d="M0 -7L4.5 -5.4L6.9 -1.2L6.1 3.5L2.4 6.6L-2.4 6.6L-6.1 3.5L-6.9 -1.2L-4.5 -5.4Z" stroke="#353b12" fill="none" stroke-width="2"></path></g><g transform="translate(188 490)"><path d="M0 -8L5.1 -6.1L7.9 -1.4L6.9 4L2.7 7.5L-2.7 7.5L-6.9 4L-7.9 -1.4L-5.1 -6.1Z" stroke="#353b12" fill="none" stroke-width="2"></path></g><g transform="translate(864 562)"><path d="M0 -6L3.9 -4.6L5.9 -1L5.2 3L2.1 5.6L-2.1 5.6L-5.2 3L-5.9 -1L-3.9 -4.6Z" stroke="#353b12" fill="none" stroke-width="2"></path></g><g transform="translate(377 536)"><path d="M0 -13L8.4 -10L12.8 -2.3L11.3 6.5L4.4 12.2L-4.4 12.2L-11.3 6.5L-12.8 -2.3L-8.4 -10Z" stroke="#353b12" fill="none" stroke-width="2"></path></g><g transform="translate(244 202)"><path d="M0 -7L4.5 -5.4L6.9 -1.2L6.1 3.5L2.4 6.6L-2.4 6.6L-6.1 3.5L-6.9 -1.2L-4.5 -5.4Z" stroke="#353b12" fill="none" stroke-width="2"></path></g><g transform="translate(474 420)"><path d="M0 -10L6.4 -7.7L9.8 -1.7L8.7 5L3.4 9.4L-3.4 9.4L-8.7 5L-9.8 -1.7L-6.4 -7.7Z" stroke="#353b12" fill="none" stroke-width="2"></path></g><g transform="translate(113 406)"><path d="M0 -13L8.4 -10L12.8 -2.3L11.3 6.5L4.4 12.2L-4.4 12.2L-11.3 6.5L-12.8 -2.3L-8.4 -10Z" stroke="#353b12" fill="none" stroke-width="2"></path></g><g transform="translate(689 67)"><path d="M0 -6L3.9 -4.6L5.9 -1L5.2 3L2.1 5.6L-2.1 5.6L-5.2 3L-5.9 -1L-3.9 -4.6Z" stroke="#353b12" fill="none" stroke-width="2"></path></g><g transform="translate(416 52)"><path d="M0 -5L3.2 -3.8L4.9 -0.9L4.3 2.5L1.7 4.7L-1.7 4.7L-4.3 2.5L-4.9 -0.9L-3.2 -3.8Z" stroke="#353b12" fill="none" stroke-width="2"></path></g><g transform="translate(82 346)"><path d="M0 -8L5.1 -6.1L7.9 -1.4L6.9 4L2.7 7.5L-2.7 7.5L-6.9 4L-7.9 -1.4L-5.1 -6.1Z" stroke="#353b12" fill="none" stroke-width="2"></path></g><g transform="translate(892 489)"><path d="M0 -5L3.2 -3.8L4.9 -0.9L4.3 2.5L1.7 4.7L-1.7 4.7L-4.3 2.5L-4.9 -0.9L-3.2 -3.8Z" stroke="#353b12" fill="none" stroke-width="2"></path></g><g transform="translate(226 179)"><path d="M0 -8L5.1 -6.1L7.9 -1.4L6.9 4L2.7 7.5L-2.7 7.5L-6.9 4L-7.9 -1.4L-5.1 -6.1Z" stroke="#353b12" fill="none" stroke-width="2"></path></g><g transform="translate(641 12)"><path d="M0 -3L1.9 -2.3L3 -0.5L2.6 1.5L1 2.8L-1 2.8L-2.6 1.5L-3 -0.5L-1.9 -2.3Z" stroke="#353b12" fill="none" stroke-width="2"></path></g><g transform="translate(492 531)"><path d="M0 -9L5.8 -6.9L8.9 -1.6L7.8 4.5L3.1 8.5L-3.1 8.5L-7.8 4.5L-8.9 -1.6L-5.8 -6.9Z" stroke="#353b12" fill="none" stroke-width="2"></path></g><g transform="translate(688 489)"><path d="M0 -9L5.8 -6.9L8.9 -1.6L7.8 4.5L3.1 8.5L-3.1 8.5L-7.8 4.5L-8.9 -1.6L-5.8 -6.9Z" stroke="#353b12" fill="none" stroke-width="2"></path></g><g transform="translate(250 334)"><path d="M0 -12L7.7 -9.2L11.8 -2.1L10.4 6L4.1 11.3L-4.1 11.3L-10.4 6L-11.8 -2.1L-7.7 -9.2Z" stroke="#353b12" fill="none" stroke-width="2"></path></g><g transform="translate(887 311)"><path d="M0 -8L5.1 -6.1L7.9 -1.4L6.9 4L2.7 7.5L-2.7 7.5L-6.9 4L-7.9 -1.4L-5.1 -6.1Z" stroke="#353b12" fill="none" stroke-width="2"></path></g><g transform="translate(814 251)"><path d="M0 -13L8.4 -10L12.8 -2.3L11.3 6.5L4.4 12.2L-4.4 12.2L-11.3 6.5L-12.8 -2.3L-8.4 -10Z" stroke="#353b12" fill="none" stroke-width="2"></path></g><g transform="translate(618 428)"><path d="M0 -12L7.7 -9.2L11.8 -2.1L10.4 6L4.1 11.3L-4.1 11.3L-10.4 6L-11.8 -2.1L-7.7 -9.2Z" stroke="#353b12" fill="none" stroke-width="2"></path></g><g transform="translate(527 197)"><path d="M0 -12L7.7 -9.2L11.8 -2.1L10.4 6L4.1 11.3L-4.1 11.3L-10.4 6L-11.8 -2.1L-7.7 -9.2Z" stroke="#353b12" fill="none" stroke-width="2"></path></g><g transform="translate(792 89)"><path d="M0 -8L5.1 -6.1L7.9 -1.4L6.9 4L2.7 7.5L-2.7 7.5L-6.9 4L-7.9 -1.4L-5.1 -6.1Z" stroke="#353b12" fill="none" stroke-width="2"></path></g><g transform="translate(134 231)"><path d="M0 -12L7.7 -9.2L11.8 -2.1L10.4 6L4.1 11.3L-4.1 11.3L-10.4 6L-11.8 -2.1L-7.7 -9.2Z" stroke="#353b12" fill="none" stroke-width="2"></path></g><g transform="translate(85 4)"><path d="M0 -5L3.2 -3.8L4.9 -0.9L4.3 2.5L1.7 4.7L-1.7 4.7L-4.3 2.5L-4.9 -0.9L-3.2 -3.8Z" stroke="#353b12" fill="none" stroke-width="2"></path></g><g transform="translate(76 44)"><path d="M0 -12L7.7 -9.2L11.8 -2.1L10.4 6L4.1 11.3L-4.1 11.3L-10.4 6L-11.8 -2.1L-7.7 -9.2Z" stroke="#353b12" fill="none" stroke-width="2"></path></g><g transform="translate(814 291)"><path d="M0 -6L3.9 -4.6L5.9 -1L5.2 3L2.1 5.6L-2.1 5.6L-5.2 3L-5.9 -1L-3.9 -4.6Z" stroke="#353b12" fill="none" stroke-width="2"></path></g><g transform="translate(711 240)"><path d="M0 -13L8.4 -10L12.8 -2.3L11.3 6.5L4.4 12.2L-4.4 12.2L-11.3 6.5L-12.8 -2.3L-8.4 -10Z" stroke="#353b12" fill="none" stroke-width="2"></path></g><g transform="translate(895 46)"><path d="M0 -4L2.6 -3.1L3.9 -0.7L3.5 2L1.4 3.8L-1.4 3.8L-3.5 2L-3.9 -0.7L-2.6 -3.1Z" stroke="#353b12" fill="none" stroke-width="2"></path></g><g transform="translate(631 118)"><path d="M0 -6L3.9 -4.6L5.9 -1L5.2 3L2.1 5.6L-2.1 5.6L-5.2 3L-5.9 -1L-3.9 -4.6Z" stroke="#353b12" fill="none" stroke-width="2"></path></g><g transform="translate(255 239)"><path d="M0 -13L8.4 -10L12.8 -2.3L11.3 6.5L4.4 12.2L-4.4 12.2L-11.3 6.5L-12.8 -2.3L-8.4 -10Z" stroke="#353b12" fill="none" stroke-width="2"></path></g><g transform="translate(5 48)"><path d="M0 -7L4.5 -5.4L6.9 -1.2L6.1 3.5L2.4 6.6L-2.4 6.6L-6.1 3.5L-6.9 -1.2L-4.5 -5.4Z" stroke="#353b12" fill="none" stroke-width="2"></path></g><g transform="translate(602 235)"><path d="M0 -3L1.9 -2.3L3 -0.5L2.6 1.5L1 2.8L-1 2.8L-2.6 1.5L-3 -0.5L-1.9 -2.3Z" stroke="#353b12" fill="none" stroke-width="2"></path></g><g transform="translate(770 133)"><path d="M0 -13L8.4 -10L12.8 -2.3L11.3 6.5L4.4 12.2L-4.4 12.2L-11.3 6.5L-12.8 -2.3L-8.4 -10Z" stroke="#353b12" fill="none" stroke-width="2"></path></g><g transform="translate(790 546)"><path d="M0 -12L7.7 -9.2L11.8 -2.1L10.4 6L4.1 11.3L-4.1 11.3L-10.4 6L-11.8 -2.1L-7.7 -9.2Z" stroke="#353b12" fill="none" stroke-width="2"></path></g><g transform="translate(410 311)"><path d="M0 -10L6.4 -7.7L9.8 -1.7L8.7 5L3.4 9.4L-3.4 9.4L-8.7 5L-9.8 -1.7L-6.4 -7.7Z" stroke="#353b12" fill="none" stroke-width="2"></path></g><g transform="translate(839 431)"><path d="M0 -11L7.1 -8.4L10.8 -1.9L9.5 5.5L3.8 10.3L-3.8 10.3L-9.5 5.5L-10.8 -1.9L-7.1 -8.4Z" stroke="#353b12" fill="none" stroke-width="2"></path></g><g transform="translate(735 598)"><path d="M0 -4L2.6 -3.1L3.9 -0.7L3.5 2L1.4 3.8L-1.4 3.8L-3.5 2L-3.9 -0.7L-2.6 -3.1Z" stroke="#353b12" fill="none" stroke-width="2"></path></g><g transform="translate(889 408)"><path d="M0 -10L6.4 -7.7L9.8 -1.7L8.7 5L3.4 9.4L-3.4 9.4L-8.7 5L-9.8 -1.7L-6.4 -7.7Z" stroke="#353b12" fill="none" stroke-width="2"></path></g><g transform="translate(87 595)"><path d="M0 -11L7.1 -8.4L10.8 -1.9L9.5 5.5L3.8 10.3L-3.8 10.3L-9.5 5.5L-10.8 -1.9L-7.1 -8.4Z" stroke="#353b12" fill="none" stroke-width="2"></path></g><g transform="translate(49 300)"><path d="M0 -11L7.1 -8.4L10.8 -1.9L9.5 5.5L3.8 10.3L-3.8 10.3L-9.5 5.5L-10.8 -1.9L-7.1 -8.4Z" stroke="#353b12" fill="none" stroke-width="2"></path></g><g transform="translate(44 174)"><path d="M0 -13L8.4 -10L12.8 -2.3L11.3 6.5L4.4 12.2L-4.4 12.2L-11.3 6.5L-12.8 -2.3L-8.4 -10Z" stroke="#353b12" fill="none" stroke-width="2"></path></g><g transform="translate(762 427)"><path d="M0 -10L6.4 -7.7L9.8 -1.7L8.7 5L3.4 9.4L-3.4 9.4L-8.7 5L-9.8 -1.7L-6.4 -7.7Z" stroke="#353b12" fill="none" stroke-width="2"></path></g><g transform="translate(530 306)"><path d="M0 -3L1.9 -2.3L3 -0.5L2.6 1.5L1 2.8L-1 2.8L-2.6 1.5L-3 -0.5L-1.9 -2.3Z" stroke="#353b12" fill="none" stroke-width="2"></path></g><g transform="translate(815 36)"><path d="M0 -13L8.4 -10L12.8 -2.3L11.3 6.5L4.4 12.2L-4.4 12.2L-11.3 6.5L-12.8 -2.3L-8.4 -10Z" stroke="#353b12" fill="none" stroke-width="2"></path></g><g transform="translate(893 457)"><path d="M0 -4L2.6 -3.1L3.9 -0.7L3.5 2L1.4 3.8L-1.4 3.8L-3.5 2L-3.9 -0.7L-2.6 -3.1Z" stroke="#353b12" fill="none" stroke-width="2"></path></g><g transform="translate(549 153)"><path d="M0 -4L2.6 -3.1L3.9 -0.7L3.5 2L1.4 3.8L-1.4 3.8L-3.5 2L-3.9 -0.7L-2.6 -3.1Z" stroke="#353b12" fill="none" stroke-width="2"></path></g><g transform="translate(364 446)"><path d="M0 -4L2.6 -3.1L3.9 -0.7L3.5 2L1.4 3.8L-1.4 3.8L-3.5 2L-3.9 -0.7L-2.6 -3.1Z" stroke="#353b12" fill="none" stroke-width="2"></path></g><g transform="translate(306 64)"><path d="M0 -12L7.7 -9.2L11.8 -2.1L10.4 6L4.1 11.3L-4.1 11.3L-10.4 6L-11.8 -2.1L-7.7 -9.2Z" stroke="#353b12" fill="none" stroke-width="2"></path></g><g transform="translate(274 96)"><path d="M0 -8L5.1 -6.1L7.9 -1.4L6.9 4L2.7 7.5L-2.7 7.5L-6.9 4L-7.9 -1.4L-5.1 -6.1Z" stroke="#353b12" fill="none" stroke-width="2"></path></g><g transform="translate(147 380)"><path d="M0 -11L7.1 -8.4L10.8 -1.9L9.5 5.5L3.8 10.3L-3.8 10.3L-9.5 5.5L-10.8 -1.9L-7.1 -8.4Z" stroke="#353b12" fill="none" stroke-width="2"></path></g><g transform="translate(60 468)"><path d="M0 -12L7.7 -9.2L11.8 -2.1L10.4 6L4.1 11.3L-4.1 11.3L-10.4 6L-11.8 -2.1L-7.7 -9.2Z" stroke="#353b12" fill="none" stroke-width="2"></path></g><g transform="translate(587 433)"><path d="M0 -11L7.1 -8.4L10.8 -1.9L9.5 5.5L3.8 10.3L-3.8 10.3L-9.5 5.5L-10.8 -1.9L-7.1 -8.4Z" stroke="#353b12" fill="none" stroke-width="2"></path></g><g transform="translate(6 92)"><path d="M0 -13L8.4 -10L12.8 -2.3L11.3 6.5L4.4 12.2L-4.4 12.2L-11.3 6.5L-12.8 -2.3L-8.4 -10Z" stroke="#353b12" fill="none" stroke-width="2"></path></g><g transform="translate(153 545)"><path d="M0 -5L3.2 -3.8L4.9 -0.9L4.3 2.5L1.7 4.7L-1.7 4.7L-4.3 2.5L-4.9 -0.9L-3.2 -3.8Z" stroke="#353b12" fill="none" stroke-width="2"></path></g><g transform="translate(196 171)"><path d="M0 -6L3.9 -4.6L5.9 -1L5.2 3L2.1 5.6L-2.1 5.6L-5.2 3L-5.9 -1L-3.9 -4.6Z" stroke="#353b12" fill="none" stroke-width="2"></path></g><g transform="translate(247 473)"><path d="M0 -8L5.1 -6.1L7.9 -1.4L6.9 4L2.7 7.5L-2.7 7.5L-6.9 4L-7.9 -1.4L-5.1 -6.1Z" stroke="#353b12" fill="none" stroke-width="2"></path></g><g transform="translate(324 186)"><path d="M0 -11L7.1 -8.4L10.8 -1.9L9.5 5.5L3.8 10.3L-3.8 10.3L-9.5 5.5L-10.8 -1.9L-7.1 -8.4Z" stroke="#353b12" fill="none" stroke-width="2"></path></g><g transform="translate(767 386)"><path d="M0 -3L1.9 -2.3L3 -0.5L2.6 1.5L1 2.8L-1 2.8L-2.6 1.5L-3 -0.5L-1.9 -2.3Z" stroke="#353b12" fill="none" stroke-width="2"></path></g><g transform="translate(13 362)"><path d="M0 -10L6.4 -7.7L9.8 -1.7L8.7 5L3.4 9.4L-3.4 9.4L-8.7 5L-9.8 -1.7L-6.4 -7.7Z" stroke="#353b12" fill="none" stroke-width="2"></path></g><g transform="translate(325 438)"><path d="M0 -11L7.1 -8.4L10.8 -1.9L9.5 5.5L3.8 10.3L-3.8 10.3L-9.5 5.5L-10.8 -1.9L-7.1 -8.4Z" stroke="#353b12" fill="none" stroke-width="2"></path></g><g transform="translate(605 194)"><path d="M0 -5L3.2 -3.8L4.9 -0.9L4.3 2.5L1.7 4.7L-1.7 4.7L-4.3 2.5L-4.9 -0.9L-3.2 -3.8Z" stroke="#353b12" fill="none" stroke-width="2"></path></g><g transform="translate(274 310)"><path d="M0 -3L1.9 -2.3L3 -0.5L2.6 1.5L1 2.8L-1 2.8L-2.6 1.5L-3 -0.5L-1.9 -2.3Z" stroke="#353b12" fill="none" stroke-width="2"></path></g><g transform="translate(643 537)"><path d="M0 -6L3.9 -4.6L5.9 -1L5.2 3L2.1 5.6L-2.1 5.6L-5.2 3L-5.9 -1L-3.9 -4.6Z" stroke="#353b12" fill="none" stroke-width="2"></path></g><g transform="translate(161 221)"><path d="M0 -8L5.1 -6.1L7.9 -1.4L6.9 4L2.7 7.5L-2.7 7.5L-6.9 4L-7.9 -1.4L-5.1 -6.1Z" stroke="#353b12" fill="none" stroke-width="2"></path></g><g transform="translate(4 462)"><path d="M0 -3L1.9 -2.3L3 -0.5L2.6 1.5L1 2.8L-1 2.8L-2.6 1.5L-3 -0.5L-1.9 -2.3Z" stroke="#353b12" fill="none" stroke-width="2"></path></g><g transform="translate(767 461)"><path d="M0 -5L3.2 -3.8L4.9 -0.9L4.3 2.5L1.7 4.7L-1.7 4.7L-4.3 2.5L-4.9 -0.9L-3.2 -3.8Z" stroke="#353b12" fill="none" stroke-width="2"></path></g><g transform="translate(62 114)"><path d="M0 -9L5.8 -6.9L8.9 -1.6L7.8 4.5L3.1 8.5L-3.1 8.5L-7.8 4.5L-8.9 -1.6L-5.8 -6.9Z" stroke="#353b12" fill="none" stroke-width="2"></path></g><g transform="translate(798 132)"><path d="M0 -6L3.9 -4.6L5.9 -1L5.2 3L2.1 5.6L-2.1 5.6L-5.2 3L-5.9 -1L-3.9 -4.6Z" stroke="#353b12" fill="none" stroke-width="2"></path></g><g transform="translate(54 597)"><path d="M0 -4L2.6 -3.1L3.9 -0.7L3.5 2L1.4 3.8L-1.4 3.8L-3.5 2L-3.9 -0.7L-2.6 -3.1Z" stroke="#353b12" fill="none" stroke-width="2"></path></g><g transform="translate(867 251)"><path d="M0 -11L7.1 -8.4L10.8 -1.9L9.5 5.5L3.8 10.3L-3.8 10.3L-9.5 5.5L-10.8 -1.9L-7.1 -8.4Z" stroke="#353b12" fill="none" stroke-width="2"></path></g><g transform="translate(585 284)"><path d="M0 -5L3.2 -3.8L4.9 -0.9L4.3 2.5L1.7 4.7L-1.7 4.7L-4.3 2.5L-4.9 -0.9L-3.2 -3.8Z" stroke="#353b12" fill="none" stroke-width="2"></path></g><g transform="translate(297 486)"><path d="M0 -4L2.6 -3.1L3.9 -0.7L3.5 2L1.4 3.8L-1.4 3.8L-3.5 2L-3.9 -0.7L-2.6 -3.1Z" stroke="#353b12" fill="none" stroke-width="2"></path></g><g transform="translate(872 170)"><path d="M0 -5L3.2 -3.8L4.9 -0.9L4.3 2.5L1.7 4.7L-1.7 4.7L-4.3 2.5L-4.9 -0.9L-3.2 -3.8Z" stroke="#353b12" fill="none" stroke-width="2"></path></g><g transform="translate(257 541)"><path d="M0 -3L1.9 -2.3L3 -0.5L2.6 1.5L1 2.8L-1 2.8L-2.6 1.5L-3 -0.5L-1.9 -2.3Z" stroke="#353b12" fill="none" stroke-width="2"></path></g><g transform="translate(366 508)"><path d="M0 -9L5.8 -6.9L8.9 -1.6L7.8 4.5L3.1 8.5L-3.1 8.5L-7.8 4.5L-8.9 -1.6L-5.8 -6.9Z" stroke="#353b12" fill="none" stroke-width="2"></path></g><g transform="translate(720 109)"><path d="M0 -6L3.9 -4.6L5.9 -1L5.2 3L2.1 5.6L-2.1 5.6L-5.2 3L-5.9 -1L-3.9 -4.6Z" stroke="#353b12" fill="none" stroke-width="2"></path></g><g transform="translate(872 119)"><path d="M0 -9L5.8 -6.9L8.9 -1.6L7.8 4.5L3.1 8.5L-3.1 8.5L-7.8 4.5L-8.9 -1.6L-5.8 -6.9Z" stroke="#353b12" fill="none" stroke-width="2"></path></g><g transform="translate(203 451)"><path d="M0 -5L3.2 -3.8L4.9 -0.9L4.3 2.5L1.7 4.7L-1.7 4.7L-4.3 2.5L-4.9 -0.9L-3.2 -3.8Z" stroke="#353b12" fill="none" stroke-width="2"></path></g><g transform="translate(523 387)"><path d="M0 -7L4.5 -5.4L6.9 -1.2L6.1 3.5L2.4 6.6L-2.4 6.6L-6.1 3.5L-6.9 -1.2L-4.5 -5.4Z" stroke="#353b12" fill="none" stroke-width="2"></path></g><g transform="translate(609 2)"><path d="M0 -6L3.9 -4.6L5.9 -1L5.2 3L2.1 5.6L-2.1 5.6L-5.2 3L-5.9 -1L-3.9 -4.6Z" stroke="#353b12" fill="none" stroke-width="2"></path></g><g transform="translate(189 99)"><path d="M0 -6L3.9 -4.6L5.9 -1L5.2 3L2.1 5.6L-2.1 5.6L-5.2 3L-5.9 -1L-3.9 -4.6Z" stroke="#353b12" fill="none" stroke-width="2"></path></g><g transform="translate(146 488)"><path d="M0 -7L4.5 -5.4L6.9 -1.2L6.1 3.5L2.4 6.6L-2.4 6.6L-6.1 3.5L-6.9 -1.2L-4.5 -5.4Z" stroke="#353b12" fill="none" stroke-width="2"></path></g><g transform="translate(112 334)"><path d="M0 -8L5.1 -6.1L7.9 -1.4L6.9 4L2.7 7.5L-2.7 7.5L-6.9 4L-7.9 -1.4L-5.1 -6.1Z" stroke="#353b12" fill="none" stroke-width="2"></path></g><g transform="translate(179 58)"><path d="M0 -11L7.1 -8.4L10.8 -1.9L9.5 5.5L3.8 10.3L-3.8 10.3L-9.5 5.5L-10.8 -1.9L-7.1 -8.4Z" stroke="#353b12" fill="none" stroke-width="2"></path></g><g transform="translate(202 13)"><path d="M0 -4L2.6 -3.1L3.9 -0.7L3.5 2L1.4 3.8L-1.4 3.8L-3.5 2L-3.9 -0.7L-2.6 -3.1Z" stroke="#353b12" fill="none" stroke-width="2"></path></g><g transform="translate(729 139)"><path d="M0 -3L1.9 -2.3L3 -0.5L2.6 1.5L1 2.8L-1 2.8L-2.6 1.5L-3 -0.5L-1.9 -2.3Z" stroke="#353b12" fill="none" stroke-width="2"></path></g><g transform="translate(563 2)"><path d="M0 -4L2.6 -3.1L3.9 -0.7L3.5 2L1.4 3.8L-1.4 3.8L-3.5 2L-3.9 -0.7L-2.6 -3.1Z" stroke="#353b12" fill="none" stroke-width="2"></path></g><g transform="translate(706 595)"><path d="M0 -8L5.1 -6.1L7.9 -1.4L6.9 4L2.7 7.5L-2.7 7.5L-6.9 4L-7.9 -1.4L-5.1 -6.1Z" stroke="#353b12" fill="none" stroke-width="2"></path></g><g transform="translate(589 151)"><path d="M0 -13L8.4 -10L12.8 -2.3L11.3 6.5L4.4 12.2L-4.4 12.2L-11.3 6.5L-12.8 -2.3L-8.4 -10Z" stroke="#353b12" fill="none" stroke-width="2"></path></g><g transform="translate(613 394)"><path d="M0 -5L3.2 -3.8L4.9 -0.9L4.3 2.5L1.7 4.7L-1.7 4.7L-4.3 2.5L-4.9 -0.9L-3.2 -3.8Z" stroke="#353b12" fill="none" stroke-width="2"></path></g><g transform="translate(639 175)"><path d="M0 -6L3.9 -4.6L5.9 -1L5.2 3L2.1 5.6L-2.1 5.6L-5.2 3L-5.9 -1L-3.9 -4.6Z" stroke="#353b12" fill="none" stroke-width="2"></path></g><g transform="translate(485 598)"><path d="M0 -3L1.9 -2.3L3 -0.5L2.6 1.5L1 2.8L-1 2.8L-2.6 1.5L-3 -0.5L-1.9 -2.3Z" stroke="#353b12" fill="none" stroke-width="2"></path></g><g transform="translate(510 8)"><path d="M0 -11L7.1 -8.4L10.8 -1.9L9.5 5.5L3.8 10.3L-3.8 10.3L-9.5 5.5L-10.8 -1.9L-7.1 -8.4Z" stroke="#353b12" fill="none" stroke-width="2"></path></g><g transform="translate(7 335)"><path d="M0 -3L1.9 -2.3L3 -0.5L2.6 1.5L1 2.8L-1 2.8L-2.6 1.5L-3 -0.5L-1.9 -2.3Z" stroke="#353b12" fill="none" stroke-width="2"></path></g><g transform="translate(193 228)"><path d="M0 -5L3.2 -3.8L4.9 -0.9L4.3 2.5L1.7 4.7L-1.7 4.7L-4.3 2.5L-4.9 -0.9L-3.2 -3.8Z" stroke="#353b12" fill="none" stroke-width="2"></path></g><g transform="translate(648 598)"><path d="M0 -11L7.1 -8.4L10.8 -1.9L9.5 5.5L3.8 10.3L-3.8 10.3L-9.5 5.5L-10.8 -1.9L-7.1 -8.4Z" stroke="#353b12" fill="none" stroke-width="2"></path></g><g transform="translate(206 568)"><path d="M0 -9L5.8 -6.9L8.9 -1.6L7.8 4.5L3.1 8.5L-3.1 8.5L-7.8 4.5L-8.9 -1.6L-5.8 -6.9Z" stroke="#353b12" fill="none" stroke-width="2"></path></g><g transform="translate(134 8)"><path d="M0 -6L3.9 -4.6L5.9 -1L5.2 3L2.1 5.6L-2.1 5.6L-5.2 3L-5.9 -1L-3.9 -4.6Z" stroke="#353b12" fill="none" stroke-width="2"></path></g><g transform="translate(354 49)"><path d="M0 -13L8.4 -10L12.8 -2.3L11.3 6.5L4.4 12.2L-4.4 12.2L-11.3 6.5L-12.8 -2.3L-8.4 -10Z" stroke="#353b12" fill="none" stroke-width="2"></path></g><g transform="translate(395 344)"><path d="M0 -7L4.5 -5.4L6.9 -1.2L6.1 3.5L2.4 6.6L-2.4 6.6L-6.1 3.5L-6.9 -1.2L-4.5 -5.4Z" stroke="#353b12" fill="none" stroke-width="2"></path></g><g transform="translate(670 421)"><path d="M0 -9L5.8 -6.9L8.9 -1.6L7.8 4.5L3.1 8.5L-3.1 8.5L-7.8 4.5L-8.9 -1.6L-5.8 -6.9Z" stroke="#353b12" fill="none" stroke-width="2"></path></g><g transform="translate(370 132)"><path d="M0 -8L5.1 -6.1L7.9 -1.4L6.9 4L2.7 7.5L-2.7 7.5L-6.9 4L-7.9 -1.4L-5.1 -6.1Z" stroke="#353b12" fill="none" stroke-width="2"></path></g><g transform="translate(321 340)"><path d="M0 -4L2.6 -3.1L3.9 -0.7L3.5 2L1.4 3.8L-1.4 3.8L-3.5 2L-3.9 -0.7L-2.6 -3.1Z" stroke="#353b12" fill="none" stroke-width="2"></path></g><g transform="translate(369 568)"><path d="M0 -8L5.1 -6.1L7.9 -1.4L6.9 4L2.7 7.5L-2.7 7.5L-6.9 4L-7.9 -1.4L-5.1 -6.1Z" stroke="#353b12" fill="none" stroke-width="2"></path></g><g transform="translate(729 397)"><path d="M0 -9L5.8 -6.9L8.9 -1.6L7.8 4.5L3.1 8.5L-3.1 8.5L-7.8 4.5L-8.9 -1.6L-5.8 -6.9Z" stroke="#353b12" fill="none" stroke-width="2"></path></g><g transform="translate(296 185)"><path d="M0 -9L5.8 -6.9L8.9 -1.6L7.8 4.5L3.1 8.5L-3.1 8.5L-7.8 4.5L-8.9 -1.6L-5.8 -6.9Z" stroke="#353b12" fill="none" stroke-width="2"></path></g><g transform="translate(732 219)"><path d="M0 -13L8.4 -10L12.8 -2.3L11.3 6.5L4.4 12.2L-4.4 12.2L-11.3 6.5L-12.8 -2.3L-8.4 -10Z" stroke="#353b12" fill="none" stroke-width="2"></path></g><g transform="translate(502 125)"><path d="M0 -12L7.7 -9.2L11.8 -2.1L10.4 6L4.1 11.3L-4.1 11.3L-10.4 6L-11.8 -2.1L-7.7 -9.2Z" stroke="#353b12" fill="none" stroke-width="2"></path></g><g transform="translate(426 388)"><path d="M0 -7L4.5 -5.4L6.9 -1.2L6.1 3.5L2.4 6.6L-2.4 6.6L-6.1 3.5L-6.9 -1.2L-4.5 -5.4Z" stroke="#353b12" fill="none" stroke-width="2"></path></g><g transform="translate(146 309)"><path d="M0 -10L6.4 -7.7L9.8 -1.7L8.7 5L3.4 9.4L-3.4 9.4L-8.7 5L-9.8 -1.7L-6.4 -7.7Z" stroke="#353b12" fill="none" stroke-width="2"></path></g><g transform="translate(130 430)"><path d="M0 -11L7.1 -8.4L10.8 -1.9L9.5 5.5L3.8 10.3L-3.8 10.3L-9.5 5.5L-10.8 -1.9L-7.1 -8.4Z" stroke="#353b12" fill="none" stroke-width="2"></path></g><g transform="translate(45 391)"><path d="M0 -9L5.8 -6.9L8.9 -1.6L7.8 4.5L3.1 8.5L-3.1 8.5L-7.8 4.5L-8.9 -1.6L-5.8 -6.9Z" stroke="#353b12" fill="none" stroke-width="2"></path></g><g transform="translate(899 347)"><path d="M0 -11L7.1 -8.4L10.8 -1.9L9.5 5.5L3.8 10.3L-3.8 10.3L-9.5 5.5L-10.8 -1.9L-7.1 -8.4Z" stroke="#353b12" fill="none" stroke-width="2"></path></g><g transform="translate(633 61)"><path d="M0 -10L6.4 -7.7L9.8 -1.7L8.7 5L3.4 9.4L-3.4 9.4L-8.7 5L-9.8 -1.7L-6.4 -7.7Z" stroke="#353b12" fill="none" stroke-width="2"></path></g><g transform="translate(238 388)"><path d="M0 -4L2.6 -3.1L3.9 -0.7L3.5 2L1.4 3.8L-1.4 3.8L-3.5 2L-3.9 -0.7L-2.6 -3.1Z" stroke="#353b12" fill="none" stroke-width="2"></path></g><g transform="translate(156 592)"><path d="M0 -5L3.2 -3.8L4.9 -0.9L4.3 2.5L1.7 4.7L-1.7 4.7L-4.3 2.5L-4.9 -0.9L-3.2 -3.8Z" stroke="#353b12" fill="none" stroke-width="2"></path></g><g transform="translate(93 278)"><path d="M0 -4L2.6 -3.1L3.9 -0.7L3.5 2L1.4 3.8L-1.4 3.8L-3.5 2L-3.9 -0.7L-2.6 -3.1Z" stroke="#353b12" fill="none" stroke-width="2"></path></g><g transform="translate(850 526)"><path d="M0 -8L5.1 -6.1L7.9 -1.4L6.9 4L2.7 7.5L-2.7 7.5L-6.9 4L-7.9 -1.4L-5.1 -6.1Z" stroke="#353b12" fill="none" stroke-width="2"></path></g><g transform="translate(815 68)"><path d="M0 -3L1.9 -2.3L3 -0.5L2.6 1.5L1 2.8L-1 2.8L-2.6 1.5L-3 -0.5L-1.9 -2.3Z" stroke="#353b12" fill="none" stroke-width="2"></path></g><g transform="translate(674 94)"><path d="M0 -13L8.4 -10L12.8 -2.3L11.3 6.5L4.4 12.2L-4.4 12.2L-11.3 6.5L-12.8 -2.3L-8.4 -10Z" stroke="#353b12" fill="none" stroke-width="2"></path></g><g transform="translate(441 438)"><path d="M0 -13L8.4 -10L12.8 -2.3L11.3 6.5L4.4 12.2L-4.4 12.2L-11.3 6.5L-12.8 -2.3L-8.4 -10Z" stroke="#353b12" fill="none" stroke-width="2"></path></g><g transform="translate(470 260)"><path d="M0 -7L4.5 -5.4L6.9 -1.2L6.1 3.5L2.4 6.6L-2.4 6.6L-6.1 3.5L-6.9 -1.2L-4.5 -5.4Z" stroke="#353b12" fill="none" stroke-width="2"></path></g><g transform="translate(472 71)"><path d="M0 -9L5.8 -6.9L8.9 -1.6L7.8 4.5L3.1 8.5L-3.1 8.5L-7.8 4.5L-8.9 -1.6L-5.8 -6.9Z" stroke="#353b12" fill="none" stroke-width="2"></path></g><g transform="translate(547 263)"><path d="M0 -7L4.5 -5.4L6.9 -1.2L6.1 3.5L2.4 6.6L-2.4 6.6L-6.1 3.5L-6.9 -1.2L-4.5 -5.4Z" stroke="#353b12" fill="none" stroke-width="2"></path></g><g transform="translate(760 76)"><path d="M0 -3L1.9 -2.3L3 -0.5L2.6 1.5L1 2.8L-1 2.8L-2.6 1.5L-3 -0.5L-1.9 -2.3Z" stroke="#353b12" fill="none" stroke-width="2"></path></g><g transform="translate(555 343)"><path d="M0 -11L7.1 -8.4L10.8 -1.9L9.5 5.5L3.8 10.3L-3.8 10.3L-9.5 5.5L-10.8 -1.9L-7.1 -8.4Z" stroke="#353b12" fill="none" stroke-width="2"></path></g><g transform="translate(36 75)"><path d="M0 -4L2.6 -3.1L3.9 -0.7L3.5 2L1.4 3.8L-1.4 3.8L-3.5 2L-3.9 -0.7L-2.6 -3.1Z" stroke="#353b12" fill="none" stroke-width="2"></path></g><g transform="translate(743 293)"><path d="M0 -9L5.8 -6.9L8.9 -1.6L7.8 4.5L3.1 8.5L-3.1 8.5L-7.8 4.5L-8.9 -1.6L-5.8 -6.9Z" stroke="#353b12" fill="none" stroke-width="2"></path></g><g transform="translate(72 319)"><path d="M0 -5L3.2 -3.8L4.9 -0.9L4.3 2.5L1.7 4.7L-1.7 4.7L-4.3 2.5L-4.9 -0.9L-3.2 -3.8Z" stroke="#353b12" fill="none" stroke-width="2"></path></g><g transform="translate(173 518)"><path d="M0 -6L3.9 -4.6L5.9 -1L5.2 3L2.1 5.6L-2.1 5.6L-5.2 3L-5.9 -1L-3.9 -4.6Z" stroke="#353b12" fill="none" stroke-width="2"></path></g><g transform="translate(556 203)"><path d="M0 -11L7.1 -8.4L10.8 -1.9L9.5 5.5L3.8 10.3L-3.8 10.3L-9.5 5.5L-10.8 -1.9L-7.1 -8.4Z" stroke="#353b12" fill="none" stroke-width="2"></path></g><g transform="translate(115 598)"><path d="M0 -13L8.4 -10L12.8 -2.3L11.3 6.5L4.4 12.2L-4.4 12.2L-11.3 6.5L-12.8 -2.3L-8.4 -10Z" stroke="#353b12" fill="none" stroke-width="2"></path></g><g transform="translate(526 44)"><path d="M0 -6L3.9 -4.6L5.9 -1L5.2 3L2.1 5.6L-2.1 5.6L-5.2 3L-5.9 -1L-3.9 -4.6Z" stroke="#353b12" fill="none" stroke-width="2"></path></g><g transform="translate(883 515)"><path d="M0 -13L8.4 -10L12.8 -2.3L11.3 6.5L4.4 12.2L-4.4 12.2L-11.3 6.5L-12.8 -2.3L-8.4 -10Z" stroke="#353b12" fill="none" stroke-width="2"></path></g><g transform="translate(355 2)"><path d="M0 -4L2.6 -3.1L3.9 -0.7L3.5 2L1.4 3.8L-1.4 3.8L-3.5 2L-3.9 -0.7L-2.6 -3.1Z" stroke="#353b12" fill="none" stroke-width="2"></path></g><g transform="translate(597 493)"><path d="M0 -11L7.1 -8.4L10.8 -1.9L9.5 5.5L3.8 10.3L-3.8 10.3L-9.5 5.5L-10.8 -1.9L-7.1 -8.4Z" stroke="#353b12" fill="none" stroke-width="2"></path></g><g transform="translate(693 203)"><path d="M0 -9L5.8 -6.9L8.9 -1.6L7.8 4.5L3.1 8.5L-3.1 8.5L-7.8 4.5L-8.9 -1.6L-5.8 -6.9Z" stroke="#353b12" fill="none" stroke-width="2"></path></g><g transform="translate(717 534)"><path d="M0 -3L1.9 -2.3L3 -0.5L2.6 1.5L1 2.8L-1 2.8L-2.6 1.5L-3 -0.5L-1.9 -2.3Z" stroke="#353b12" fill="none" stroke-width="2"></path></g><g transform="translate(222 504)"><path d="M0 -6L3.9 -4.6L5.9 -1L5.2 3L2.1 5.6L-2.1 5.6L-5.2 3L-5.9 -1L-3.9 -4.6Z" stroke="#353b12" fill="none" stroke-width="2"></path></g><g transform="translate(659 210)"><path d="M0 -10L6.4 -7.7L9.8 -1.7L8.7 5L3.4 9.4L-3.4 9.4L-8.7 5L-9.8 -1.7L-6.4 -7.7Z" stroke="#353b12" fill="none" stroke-width="2"></path></g><g transform="translate(478 357)"><path d="M0 -12L7.7 -9.2L11.8 -2.1L10.4 6L4.1 11.3L-4.1 11.3L-10.4 6L-11.8 -2.1L-7.7 -9.2Z" stroke="#353b12" fill="none" stroke-width="2"></path></g><g transform="translate(1 262)"><path d="M0 -8L5.1 -6.1L7.9 -1.4L6.9 4L2.7 7.5L-2.7 7.5L-6.9 4L-7.9 -1.4L-5.1 -6.1Z" stroke="#353b12" fill="none" stroke-width="2"></path></g><g transform="translate(165 119)"><path d="M0 -9L5.8 -6.9L8.9 -1.6L7.8 4.5L3.1 8.5L-3.1 8.5L-7.8 4.5L-8.9 -1.6L-5.8 -6.9Z" stroke="#353b12" fill="none" stroke-width="2"></path></g><g transform="translate(858 411)"><path d="M0 -9L5.8 -6.9L8.9 -1.6L7.8 4.5L3.1 8.5L-3.1 8.5L-7.8 4.5L-8.9 -1.6L-5.8 -6.9Z" stroke="#353b12" fill="none" stroke-width="2"></path></g></g></svg>